0
SECTION
2
HEADER
9
$ACADVER
1
AC1008
9
$UCSORG
10
0.0
20
0.0
30
0.0
9
$UCSXDIR
10
1.0
20
0.0
30
0.0
9
$TILEMODE
70
1
9
$UCSYDIR
10
0.0
20
1.0
30
0.0
9
$EXTMIN
10
-12.766135
20
-12.766096
30
-2.974039
9
$EXTMAX
10
12.765974
20
12.766014
30
39.792015
0
ENDSEC
0
SECTION
2
TABLES
0
TABLE
2
LTYPE
70
1
0
LTYPE
2
CONTINUOUS
70
64
3
Solid line
72
65
73
0
40
0.0
0
ENDTAB
0
TABLE
2
LAYER
70
4
0
LAYER
2
Cylinder02
70
0
62
231
6
CONTINUOUS
0
LAYER
2
Sphere01
70
0
62
192
6
CONTINUOUS
0
LAYER
2
Sphere02
70
0
62
192
6
CONTINUOUS
0
LAYER
2
Sphere03
70
0
62
192
6
CONTINUOUS
0
ENDTAB
0
TABLE
2
STYLE
70
1
0
STYLE
2
STANDARD
70
0
40
0.0
41
1.0
50
0.0
71
0
42
0.2
3
txt
4

0
ENDTAB
0
TABLE
2
UCS
70
0
0
ENDTAB
0
ENDSEC
0
SECTION
2
ENTITIES
0
POLYLINE
8
Cylinder02
66
1
70
64
71
26
72
48
62
231
0
VERTEX
8
Cylinder02
10
0.204799
20
0.043965
30
-2.974039
70
192
0
VERTEX
8
Cylinder02
10
2.204799
20
0.043965
30
-2.974039
70
192
0
VERTEX
8
Cylinder02
10
1.204799
20
1.776016
30
-2.974039
70
192
0
VERTEX
8
Cylinder02
10
-0.795201
20
1.776016
30
-2.974039
70
192
0
VERTEX
8
Cylinder02
10
-1.795201
20
0.043965
30
-2.974039
70
192
0
VERTEX
8
Cylinder02
10
-0.795200
20
-1.688086
30
-2.974039
70
192
0
VERTEX
8
Cylinder02
10
1.204800
20
-1.688086
30
-2.974039
70
192
0
VERTEX
8
Cylinder02
10
2.204799
20
0.043965
30
7.025961
70
192
0
VERTEX
8
Cylinder02
10
1.204799
20
1.776016
30
7.025961
70
192
0
VERTEX
8
Cylinder02
10
-0.795201
20
1.776016
30
7.025961
70
192
0
VERTEX
8
Cylinder02
10
-1.795201
20
0.043965
30
7.025961
70
192
0
VERTEX
8
Cylinder02
10
-0.795200
20
-1.688086
30
7.025961
70
192
0
VERTEX
8
Cylinder02
10
1.204800
20
-1.688086
30
7.025961
70
192
0
VERTEX
8
Cylinder02
10
2.204799
20
0.043965
30
17.025961
70
192
0
VERTEX
8
Cylinder02
10
1.204799
20
1.776016
30
17.025961
70
192
0
VERTEX
8
Cylinder02
10
-0.795201
20
1.776016
30
17.025961
70
192
0
VERTEX
8
Cylinder02
10
-1.795201
20
0.043965
30
17.025961
70
192
0
VERTEX
8
Cylinder02
10
-0.795200
20
-1.688086
30
17.025961
70
192
0
VERTEX
8
Cylinder02
10
1.204800
20
-1.688086
30
17.025961
70
192
0
VERTEX
8
Cylinder02
10
2.204799
20
0.043965
30
27.025961
70
192
0
VERTEX
8
Cylinder02
10
1.204799
20
1.776016
30
27.025961
70
192
0
VERTEX
8
Cylinder02
10
-0.795201
20
1.776016
30
27.025961
70
192
0
VERTEX
8
Cylinder02
10
-1.795201
20
0.043965
30
27.025961
70
192
0
VERTEX
8
Cylinder02
10
-0.795200
20
-1.688086
30
27.025961
70
192
0
VERTEX
8
Cylinder02
10
1.204800
20
-1.688086
30
27.025961
70
192
0
VERTEX
8
Cylinder02
10
0.204799
20
0.043965
30
27.025961
70
192
0
VERTEX
8
Cylinder02
10
0
20
0
30
0
70
128
71
-1
72
3
73
-2
0
VERTEX
8
Cylinder02
10
0
20
0
30
0
70
128
71
-1
72
4
73
-3
0
VERTEX
8
Cylinder02
10
0
20
0
30
0
70
128
71
-1
72
5
73
-4
0
VERTEX
8
Cylinder02
10
0
20
0
30
0
70
128
71
-1
72
6
73
-5
0
VERTEX
8
Cylinder02
10
0
20
0
30
0
70
128
71
-1
72
7
73
-6
0
VERTEX
8
Cylinder02
10
0
20
0
30
0
70
128
71
-1
72
2
73
-7
0
VERTEX
8
Cylinder02
10
0
20
0
30
0
70
128
71
-2
72
9
73
8
0
VERTEX
8
Cylinder02
10
0
20
0
30
0
70
128
71
2
72
3
73
-9
0
VERTEX
8
Cylinder02
10
0
20
0
30
0
70
128
71
-3
72
10
73
9
0
VERTEX
8
Cylinder02
10
0
20
0
30
0
70
128
71
3
72
4
73
-10
0
VERTEX
8
Cylinder02
10
0
20
0
30
0
70
128
71
-4
72
11
73
10
0
VERTEX
8
Cylinder02
10
0
20
0
30
0
70
128
71
4
72
5
73
-11
0
VERTEX
8
Cylinder02
10
0
20
0
30
0
70
128
71
-5
72
12
73
11
0
VERTEX
8
Cylinder02
10
0
20
0
30
0
70
128
71
5
72
6
73
-12
0
VERTEX
8
Cylinder02
10
0
20
0
30
0
70
128
71
-6
72
13
73
12
0
VERTEX
8
Cylinder02
10
0
20
0
30
0
70
128
71
6
72
7
73
-13
0
VERTEX
8
Cylinder02
10
0
20
0
30
0
70
128
71
-7
72
8
73
13
0
VERTEX
8
Cylinder02
10
0
20
0
30
0
70
128
71
7
72
2
73
-8
0
VERTEX
8
Cylinder02
10
0
20
0
30
0
70
128
71
-8
72
15
73
14
0
VERTEX
8
Cylinder02
10
0
20
0
30
0
70
128
71
8
72
9
73
-15
0
VERTEX
8
Cylinder02
10
0
20
0
30
0
70
128
71
-9
72
16
73
15
0
VERTEX
8
Cylinder02
10
0
20
0
30
0
70
128
71
9
72
10
73
-16
0
VERTEX
8
Cylinder02
10
0
20
0
30
0
70
128
71
-10
72
17
73
16
0
VERTEX
8
Cylinder02
10
0
20
0
30
0
70
128
71
10
72
11
73
-17
0
VERTEX
8
Cylinder02
10
0
20
0
30
0
70
128
71
-11
72
18
73
17
0
VERTEX
8
Cylinder02
10
0
20
0
30
0
70
128
71
11
72
12
73
-18
0
VERTEX
8
Cylinder02
10
0
20
0
30
0
70
128
71
-12
72
19
73
18
0
VERTEX
8
Cylinder02
10
0
20
0
30
0
70
128
71
12
72
13
73
-19
0
VERTEX
8
Cylinder02
10
0
20
0
30
0
70
128
71
-13
72
14
73
19
0
VERTEX
8
Cylinder02
10
0
20
0
30
0
70
128
71
13
72
8
73
-14
0
VERTEX
8
Cylinder02
10
0
20
0
30
0
70
128
71
-14
72
21
73
20
0
VERTEX
8
Cylinder02
10
0
20
0
30
0
70
128
71
14
72
15
73
-21
0
VERTEX
8
Cylinder02
10
0
20
0
30
0
70
128
71
-15
72
22
73
21
0
VERTEX
8
Cylinder02
10
0
20
0
30
0
70
128
71
15
72
16
73
-22
0
VERTEX
8
Cylinder02
10
0
20
0
30
0
70
128
71
-16
72
23
73
22
0
VERTEX
8
Cylinder02
10
0
20
0
30
0
70
128
71
16
72
17
73
-23
0
VERTEX
8
Cylinder02
10
0
20
0
30
0
70
128
71
-17
72
24
73
23
0
VERTEX
8
Cylinder02
10
0
20
0
30
0
70
128
71
17
72
18
73
-24
0
VERTEX
8
Cylinder02
10
0
20
0
30
0
70
128
71
-18
72
25
73
24
0
VERTEX
8
Cylinder02
10
0
20
0
30
0
70
128
71
18
72
19
73
-25
0
VERTEX
8
Cylinder02
10
0
20
0
30
0
70
128
71
-19
72
20
73
25
0
VERTEX
8
Cylinder02
10
0
20
0
30
0
70
128
71
19
72
14
73
-20
0
VERTEX
8
Cylinder02
10
0
20
0
30
0
70
128
71
-26
72
20
73
-21
0
VERTEX
8
Cylinder02
10
0
20
0
30
0
70
128
71
-26
72
21
73
-22
0
VERTEX
8
Cylinder02
10
0
20
0
30
0
70
128
71
-26
72
22
73
-23
0
VERTEX
8
Cylinder02
10
0
20
0
30
0
70
128
71
-26
72
23
73
-24
0
VERTEX
8
Cylinder02
10
0
20
0
30
0
70
128
71
-26
72
24
73
-25
0
VERTEX
8
Cylinder02
10
0
20
0
30
0
70
128
71
-26
72
25
73
-20
0
SEQEND
8
Cylinder02
0
POLYLINE
8
Sphere01
66
1
70
64
71
114
72
224
62
192
0
VERTEX
8
Sphere01
10
-0.000080
20
-0.000041
30
37.025963
70
192
0
VERTEX
8
Sphere01
10
-0.000081
20
3.826793
30
36.264755
70
192
0
VERTEX
8
Sphere01
10
-1.464547
20
3.535493
30
36.264755
70
192
0
VERTEX
8
Sphere01
10
-2.706061
20
2.705939
30
36.264755
70
192
0
VERTEX
8
Sphere01
10
-3.535614
20
1.464425
30
36.264755
70
192
0
VERTEX
8
Sphere01
10
-3.826915
20
-0.000042
30
36.264755
70
192
0
VERTEX
8
Sphere01
10
-3.535614
20
-1.464508
30
36.264755
70
192
0
VERTEX
8
Sphere01
10
-2.706061
20
-2.706022
30
36.264755
70
192
0
VERTEX
8
Sphere01
10
-1.464546
20
-3.535575
30
36.264755
70
192
0
VERTEX
8
Sphere01
10
-0.000080
20
-3.826876
30
36.264755
70
192
0
VERTEX
8
Sphere01
10
1.464386
20
-3.535575
30
36.264755
70
192
0
VERTEX
8
Sphere01
10
2.705901
20
-2.706021
30
36.264755
70
192
0
VERTEX
8
Sphere01
10
3.535454
20
-1.464507
30
36.264755
70
192
0
VERTEX
8
Sphere01
10
3.826754
20
-0.000041
30
36.264755
70
192
0
VERTEX
8
Sphere01
10
3.535453
20
1.464426
30
36.264755
70
192
0
VERTEX
8
Sphere01
10
2.705900
20
2.705940
30
36.264755
70
192
0
VERTEX
8
Sphere01
10
1.464385
20
3.535493
30
36.264755
70
192
0
VERTEX
8
Sphere01
10
-0.000081
20
7.071027
30
34.097031
70
192
0
VERTEX
8
Sphere01
10
-2.706061
20
6.532773
30
34.097031
70
192
0
VERTEX
8
Sphere01
10
-5.000081
20
4.999959
30
34.097031
70
192
0
VERTEX
8
Sphere01
10
-6.532896
20
2.705939
30
34.097031
70
192
0
VERTEX
8
Sphere01
10
-7.071148
20
-0.000042
30
34.097031
70
192
0
VERTEX
8
Sphere01
10
-6.532895
20
-2.706023
30
34.097031
70
192
0
VERTEX
8
Sphere01
10
-5.000080
20
-5.000041
30
34.097031
70
192
0
VERTEX
8
Sphere01
10
-2.706060
20
-6.532856
30
34.097031
70
192
0
VERTEX
8
Sphere01
10
-0.000079
20
-7.071109
30
34.097031
70
192
0
VERTEX
8
Sphere01
10
2.705901
20
-6.532856
30
34.097031
70
192
0
VERTEX
8
Sphere01
10
4.999920
20
-5.000040
30
34.097031
70
192
0
VERTEX
8
Sphere01
10
6.532735
20
-2.706021
30
34.097031
70
192
0
VERTEX
8
Sphere01
10
7.070987
20
-0.000040
30
34.097031
70
192
0
VERTEX
8
Sphere01
10
6.532734
20
2.705940
30
34.097031
70
192
0
VERTEX
8
Sphere01
10
4.999918
20
4.999960
30
34.097031
70
192
0
VERTEX
8
Sphere01
10
2.705899
20
6.532774
30
34.097031
70
192
0
VERTEX
8
Sphere01
10
-0.000081
20
9.238754
30
30.852795
70
192
0
VERTEX
8
Sphere01
10
-3.535615
20
8.535493
30
30.852795
70
192
0
VERTEX
8
Sphere01
10
-6.532896
20
6.532773
30
30.852795
70
192
0
VERTEX
8
Sphere01
10
-8.535614
20
3.535492
30
30.852795
70
192
0
VERTEX
8
Sphere01
10
-9.238875
20
-0.000042
30
30.852795
70
192
0
VERTEX
8
Sphere01
10
-8.535614
20
-3.535576
30
30.852795
70
192
0
VERTEX
8
Sphere01
10
-6.532895
20
-6.532856
30
30.852795
70
192
0
VERTEX
8
Sphere01
10
-3.535613
20
-8.535575
30
30.852795
70
192
0
VERTEX
8
Sphere01
10
-0.000079
20
-9.238836
30
30.852795
70
192
0
VERTEX
8
Sphere01
10
3.535455
20
-8.535574
30
30.852795
70
192
0
VERTEX
8
Sphere01
10
6.532735
20
-6.532855
30
30.852795
70
192
0
VERTEX
8
Sphere01
10
8.535455
20
-3.535574
30
30.852795
70
192
0
VERTEX
8
Sphere01
10
9.238715
20
-0.000040
30
30.852795
70
192
0
VERTEX
8
Sphere01
10
8.535453
20
3.535494
30
30.852795
70
192
0
VERTEX
8
Sphere01
10
6.532733
20
6.532775
30
30.852795
70
192
0
VERTEX
8
Sphere01
10
3.535452
20
8.535494
30
30.852795
70
192
0
VERTEX
8
Sphere01
10
-0.000081
20
9.999959
30
27.025961
70
192
0
VERTEX
8
Sphere01
10
-3.826915
20
9.238754
30
27.025961
70
192
0
VERTEX
8
Sphere01
10
-7.071149
20
7.071026
30
27.025961
70
192
0
VERTEX
8
Sphere01
10
-9.238875
20
3.826792
30
27.025961
70
192
0
VERTEX
8
Sphere01
10
-10.000080
20
-0.000042
30
27.025961
70
192
0
VERTEX
8
Sphere01
10
-9.238875
20
-3.826876
30
27.025961
70
192
0
VERTEX
8
Sphere01
10
-7.071147
20
-7.071110
30
27.025961
70
192
0
VERTEX
8
Sphere01
10
-3.826914
20
-9.238837
30
27.025961
70
192
0
VERTEX
8
Sphere01
10
-0.000079
20
-10.000041
30
27.025961
70
192
0
VERTEX
8
Sphere01
10
3.826755
20
-9.238835
30
27.025961
70
192
0
VERTEX
8
Sphere01
10
7.070988
20
-7.071108
30
27.025961
70
192
0
VERTEX
8
Sphere01
10
9.238716
20
-3.826874
30
27.025961
70
192
0
VERTEX
8
Sphere01
10
9.999920
20
-0.000039
30
27.025961
70
192
0
VERTEX
8
Sphere01
10
9.238714
20
3.826795
30
27.025961
70
192
0
VERTEX
8
Sphere01
10
7.070986
20
7.071028
30
27.025961
70
192
0
VERTEX
8
Sphere01
10
3.826752
20
9.238755
30
27.025961
70
192
0
VERTEX
8
Sphere01
10
-0.000081
20
9.238754
30
23.199125
70
192
0
VERTEX
8
Sphere01
10
-3.535615
20
8.535493
30
23.199125
70
192
0
VERTEX
8
Sphere01
10
-6.532896
20
6.532773
30
23.199125
70
192
0
VERTEX
8
Sphere01
10
-8.535614
20
3.535492
30
23.199125
70
192
0
VERTEX
8
Sphere01
10
-9.238875
20
-0.000042
30
23.199125
70
192
0
VERTEX
8
Sphere01
10
-8.535614
20
-3.535576
30
23.199125
70
192
0
VERTEX
8
Sphere01
10
-6.532895
20
-6.532856
30
23.199125
70
192
0
VERTEX
8
Sphere01
10
-3.535613
20
-8.535575
30
23.199125
70
192
0
VERTEX
8
Sphere01
10
-0.000079
20
-9.238836
30
23.199125
70
192
0
VERTEX
8
Sphere01
10
3.535455
20
-8.535574
30
23.199125
70
192
0
VERTEX
8
Sphere01
10
6.532735
20
-6.532855
30
23.199125
70
192
0
VERTEX
8
Sphere01
10
8.535455
20
-3.535574
30
23.199125
70
192
0
VERTEX
8
Sphere01
10
9.238715
20
-0.000040
30
23.199125
70
192
0
VERTEX
8
Sphere01
10
8.535453
20
3.535494
30
23.199125
70
192
0
VERTEX
8
Sphere01
10
6.532733
20
6.532775
30
23.199125
70
192
0
VERTEX
8
Sphere01
10
3.535452
20
8.535494
30
23.199125
70
192
0
VERTEX
8
Sphere01
10
-0.000081
20
7.071026
30
19.954893
70
192
0
VERTEX
8
Sphere01
10
-2.706061
20
6.532773
30
19.954893
70
192
0
VERTEX
8
Sphere01
10
-5.000081
20
4.999959
30
19.954893
70
192
0
VERTEX
8
Sphere01
10
-6.532895
20
2.705939
30
19.954893
70
192
0
VERTEX
8
Sphere01
10
-7.071148
20
-0.000042
30
19.954893
70
192
0
VERTEX
8
Sphere01
10
-6.532895
20
-2.706022
30
19.954893
70
192
0
VERTEX
8
Sphere01
10
-5.000080
20
-5.000041
30
19.954893
70
192
0
VERTEX
8
Sphere01
10
-2.706060
20
-6.532856
30
19.954893
70
192
0
VERTEX
8
Sphere01
10
-0.000079
20
-7.071108
30
19.954893
70
192
0
VERTEX
8
Sphere01
10
2.705901
20
-6.532855
30
19.954893
70
192
0
VERTEX
8
Sphere01
10
4.999920
20
-5.000040
30
19.954893
70
192
0
VERTEX
8
Sphere01
10
6.532734
20
-2.706021
30
19.954893
70
192
0
VERTEX
8
Sphere01
10
7.070987
20
-0.000040
30
19.954893
70
192
0
VERTEX
8
Sphere01
10
6.532733
20
2.705940
30
19.954893
70
192
0
VERTEX
8
Sphere01
10
4.999918
20
4.999959
30
19.954893
70
192
0
VERTEX
8
Sphere01
10
2.705899
20
6.532774
30
19.954893
70
192
0
VERTEX
8
Sphere01
10
-0.000081
20
3.826792
30
17.787167
70
192
0
VERTEX
8
Sphere01
10
-1.464546
20
3.535492
30
17.787167
70
192
0
VERTEX
8
Sphere01
10
-2.706061
20
2.705939
30
17.787167
70
192
0
VERTEX
8
Sphere01
10
-3.535614
20
1.464424
30
17.787167
70
192
0
VERTEX
8
Sphere01
10
-3.826914
20
-0.000042
30
17.787167
70
192
0
VERTEX
8
Sphere01
10
-3.535614
20
-1.464507
30
17.787167
70
192
0
VERTEX
8
Sphere01
10
-2.706060
20
-2.706022
30
17.787167
70
192
0
VERTEX
8
Sphere01
10
-1.464546
20
-3.535575
30
17.787167
70
192
0
VERTEX
8
Sphere01
10
-0.000080
20
-3.826875
30
17.787167
70
192
0
VERTEX
8
Sphere01
10
1.464386
20
-3.535574
30
17.787167
70
192
0
VERTEX
8
Sphere01
10
2.705900
20
-2.706021
30
17.787167
70
192
0
VERTEX
8
Sphere01
10
3.535453
20
-1.464507
30
17.787167
70
192
0
VERTEX
8
Sphere01
10
3.826753
20
-0.000041
30
17.787167
70
192
0
VERTEX
8
Sphere01
10
3.535453
20
1.464425
30
17.787167
70
192
0
VERTEX
8
Sphere01
10
2.705899
20
2.705939
30
17.787167
70
192
0
VERTEX
8
Sphere01
10
1.464385
20
3.535492
30
17.787167
70
192
0
VERTEX
8
Sphere01
10
-0.000080
20
-0.000041
30
17.025961
70
192
0
VERTEX
8
Sphere01
10
0
20
0
30
0
70
128
71
1
72
2
73
3
0
VERTEX
8
Sphere01
10
0
20
0
30
0
70
128
71
1
72
3
73
4
0
VERTEX
8
Sphere01
10
0
20
0
30
0
70
128
71
1
72
4
73
5
0
VERTEX
8
Sphere01
10
0
20
0
30
0
70
128
71
1
72
5
73
6
0
VERTEX
8
Sphere01
10
0
20
0
30
0
70
128
71
1
72
6
73
7
0
VERTEX
8
Sphere01
10
0
20
0
30
0
70
128
71
1
72
7
73
8
0
VERTEX
8
Sphere01
10
0
20
0
30
0
70
128
71
1
72
8
73
9
0
VERTEX
8
Sphere01
10
0
20
0
30
0
70
128
71
1
72
9
73
10
0
VERTEX
8
Sphere01
10
0
20
0
30
0
70
128
71
1
72
10
73
11
0
VERTEX
8
Sphere01
10
0
20
0
30
0
70
128
71
1
72
11
73
12
0
VERTEX
8
Sphere01
10
0
20
0
30
0
70
128
71
1
72
12
73
13
0
VERTEX
8
Sphere01
10
0
20
0
30
0
70
128
71
1
72
13
73
14
0
VERTEX
8
Sphere01
10
0
20
0
30
0
70
128
71
1
72
14
73
15
0
VERTEX
8
Sphere01
10
0
20
0
30
0
70
128
71
1
72
15
73
16
0
VERTEX
8
Sphere01
10
0
20
0
30
0
70
128
71
1
72
16
73
17
0
VERTEX
8
Sphere01
10
0
20
0
30
0
70
128
71
1
72
17
73
2
0
VERTEX
8
Sphere01
10
0
20
0
30
0
70
128
71
2
72
18
73
-19
0
VERTEX
8
Sphere01
10
0
20
0
30
0
70
128
71
-2
72
19
73
3
0
VERTEX
8
Sphere01
10
0
20
0
30
0
70
128
71
3
72
19
73
-20
0
VERTEX
8
Sphere01
10
0
20
0
30
0
70
128
71
-3
72
20
73
4
0
VERTEX
8
Sphere01
10
0
20
0
30
0
70
128
71
4
72
20
73
-21
0
VERTEX
8
Sphere01
10
0
20
0
30
0
70
128
71
-4
72
21
73
5
0
VERTEX
8
Sphere01
10
0
20
0
30
0
70
128
71
5
72
21
73
-22
0
VERTEX
8
Sphere01
10
0
20
0
30
0
70
128
71
-5
72
22
73
6
0
VERTEX
8
Sphere01
10
0
20
0
30
0
70
128
71
6
72
22
73
-23
0
VERTEX
8
Sphere01
10
0
20
0
30
0
70
128
71
-6
72
23
73
7
0
VERTEX
8
Sphere01
10
0
20
0
30
0
70
128
71
7
72
23
73
-24
0
VERTEX
8
Sphere01
10
0
20
0
30
0
70
128
71
-7
72
24
73
8
0
VERTEX
8
Sphere01
10
0
20
0
30
0
70
128
71
8
72
24
73
-25
0
VERTEX
8
Sphere01
10
0
20
0
30
0
70
128
71
-8
72
25
73
9
0
VERTEX
8
Sphere01
10
0
20
0
30
0
70
128
71
9
72
25
73
-26
0
VERTEX
8
Sphere01
10
0
20
0
30
0
70
128
71
-9
72
26
73
10
0
VERTEX
8
Sphere01
10
0
20
0
30
0
70
128
71
10
72
26
73
-27
0
VERTEX
8
Sphere01
10
0
20
0
30
0
70
128
71
-10
72
27
73
11
0
VERTEX
8
Sphere01
10
0
20
0
30
0
70
128
71
11
72
27
73
-28
0
VERTEX
8
Sphere01
10
0
20
0
30
0
70
128
71
-11
72
28
73
12
0
VERTEX
8
Sphere01
10
0
20
0
30
0
70
128
71
12
72
28
73
-29
0
VERTEX
8
Sphere01
10
0
20
0
30
0
70
128
71
-12
72
29
73
13
0
VERTEX
8
Sphere01
10
0
20
0
30
0
70
128
71
13
72
29
73
-30
0
VERTEX
8
Sphere01
10
0
20
0
30
0
70
128
71
-13
72
30
73
14
0
VERTEX
8
Sphere01
10
0
20
0
30
0
70
128
71
14
72
30
73
-31
0
VERTEX
8
Sphere01
10
0
20
0
30
0
70
128
71
-14
72
31
73
15
0
VERTEX
8
Sphere01
10
0
20
0
30
0
70
128
71
15
72
31
73
-32
0
VERTEX
8
Sphere01
10
0
20
0
30
0
70
128
71
-15
72
32
73
16
0
VERTEX
8
Sphere01
10
0
20
0
30
0
70
128
71
16
72
32
73
-33
0
VERTEX
8
Sphere01
10
0
20
0
30
0
70
128
71
-16
72
33
73
17
0
VERTEX
8
Sphere01
10
0
20
0
30
0
70
128
71
17
72
33
73
-18
0
VERTEX
8
Sphere01
10
0
20
0
30
0
70
128
71
-17
72
18
73
2
0
VERTEX
8
Sphere01
10
0
20
0
30
0
70
128
71
18
72
34
73
-35
0
VERTEX
8
Sphere01
10
0
20
0
30
0
70
128
71
-18
72
35
73
19
0
VERTEX
8
Sphere01
10
0
20
0
30
0
70
128
71
19
72
35
73
-36
0
VERTEX
8
Sphere01
10
0
20
0
30
0
70
128
71
-19
72
36
73
20
0
VERTEX
8
Sphere01
10
0
20
0
30
0
70
128
71
20
72
36
73
-37
0
VERTEX
8
Sphere01
10
0
20
0
30
0
70
128
71
-20
72
37
73
21
0
VERTEX
8
Sphere01
10
0
20
0
30
0
70
128
71
21
72
37
73
-38
0
VERTEX
8
Sphere01
10
0
20
0
30
0
70
128
71
-21
72
38
73
22
0
VERTEX
8
Sphere01
10
0
20
0
30
0
70
128
71
22
72
38
73
-39
0
VERTEX
8
Sphere01
10
0
20
0
30
0
70
128
71
-22
72
39
73
23
0
VERTEX
8
Sphere01
10
0
20
0
30
0
70
128
71
23
72
39
73
-40
0
VERTEX
8
Sphere01
10
0
20
0
30
0
70
128
71
-23
72
40
73
24
0
VERTEX
8
Sphere01
10
0
20
0
30
0
70
128
71
24
72
40
73
-41
0
VERTEX
8
Sphere01
10
0
20
0
30
0
70
128
71
-24
72
41
73
25
0
VERTEX
8
Sphere01
10
0
20
0
30
0
70
128
71
25
72
41
73
-42
0
VERTEX
8
Sphere01
10
0
20
0
30
0
70
128
71
-25
72
42
73
26
0
VERTEX
8
Sphere01
10
0
20
0
30
0
70
128
71
26
72
42
73
-43
0
VERTEX
8
Sphere01
10
0
20
0
30
0
70
128
71
-26
72
43
73
27
0
VERTEX
8
Sphere01
10
0
20
0
30
0
70
128
71
27
72
43
73
-44
0
VERTEX
8
Sphere01
10
0
20
0
30
0
70
128
71
-27
72
44
73
28
0
VERTEX
8
Sphere01
10
0
20
0
30
0
70
128
71
28
72
44
73
-45
0
VERTEX
8
Sphere01
10
0
20
0
30
0
70
128
71
-28
72
45
73
29
0
VERTEX
8
Sphere01
10
0
20
0
30
0
70
128
71
29
72
45
73
-46
0
VERTEX
8
Sphere01
10
0
20
0
30
0
70
128
71
-29
72
46
73
30
0
VERTEX
8
Sphere01
10
0
20
0
30
0
70
128
71
30
72
46
73
-47
0
VERTEX
8
Sphere01
10
0
20
0
30
0
70
128
71
-30
72
47
73
31
0
VERTEX
8
Sphere01
10
0
20
0
30
0
70
128
71
31
72
47
73
-48
0
VERTEX
8
Sphere01
10
0
20
0
30
0
70
128
71
-31
72
48
73
32
0
VERTEX
8
Sphere01
10
0
20
0
30
0
70
128
71
32
72
48
73
-49
0
VERTEX
8
Sphere01
10
0
20
0
30
0
70
128
71
-32
72
49
73
33
0
VERTEX
8
Sphere01
10
0
20
0
30
0
70
128
71
33
72
49
73
-34
0
VERTEX
8
Sphere01
10
0
20
0
30
0
70
128
71
-33
72
34
73
18
0
VERTEX
8
Sphere01
10
0
20
0
30
0
70
128
71
34
72
50
73
-51
0
VERTEX
8
Sphere01
10
0
20
0
30
0
70
128
71
-34
72
51
73
35
0
VERTEX
8
Sphere01
10
0
20
0
30
0
70
128
71
35
72
51
73
-52
0
VERTEX
8
Sphere01
10
0
20
0
30
0
70
128
71
-35
72
52
73
36
0
VERTEX
8
Sphere01
10
0
20
0
30
0
70
128
71
36
72
52
73
-53
0
VERTEX
8
Sphere01
10
0
20
0
30
0
70
128
71
-36
72
53
73
37
0
VERTEX
8
Sphere01
10
0
20
0
30
0
70
128
71
37
72
53
73
-54
0
VERTEX
8
Sphere01
10
0
20
0
30
0
70
128
71
-37
72
54
73
38
0
VERTEX
8
Sphere01
10
0
20
0
30
0
70
128
71
38
72
54
73
-55
0
VERTEX
8
Sphere01
10
0
20
0
30
0
70
128
71
-38
72
55
73
39
0
VERTEX
8
Sphere01
10
0
20
0
30
0
70
128
71
39
72
55
73
-56
0
VERTEX
8
Sphere01
10
0
20
0
30
0
70
128
71
-39
72
56
73
40
0
VERTEX
8
Sphere01
10
0
20
0
30
0
70
128
71
40
72
56
73
-57
0
VERTEX
8
Sphere01
10
0
20
0
30
0
70
128
71
-40
72
57
73
41
0
VERTEX
8
Sphere01
10
0
20
0
30
0
70
128
71
41
72
57
73
-58
0
VERTEX
8
Sphere01
10
0
20
0
30
0
70
128
71
-41
72
58
73
42
0
VERTEX
8
Sphere01
10
0
20
0
30
0
70
128
71
42
72
58
73
-59
0
VERTEX
8
Sphere01
10
0
20
0
30
0
70
128
71
-42
72
59
73
43
0
VERTEX
8
Sphere01
10
0
20
0
30
0
70
128
71
43
72
59
73
-60
0
VERTEX
8
Sphere01
10
0
20
0
30
0
70
128
71
-43
72
60
73
44
0
VERTEX
8
Sphere01
10
0
20
0
30
0
70
128
71
44
72
60
73
-61
0
VERTEX
8
Sphere01
10
0
20
0
30
0
70
128
71
-44
72
61
73
45
0
VERTEX
8
Sphere01
10
0
20
0
30
0
70
128
71
45
72
61
73
-62
0
VERTEX
8
Sphere01
10
0
20
0
30
0
70
128
71
-45
72
62
73
46
0
VERTEX
8
Sphere01
10
0
20
0
30
0
70
128
71
46
72
62
73
-63
0
VERTEX
8
Sphere01
10
0
20
0
30
0
70
128
71
-46
72
63
73
47
0
VERTEX
8
Sphere01
10
0
20
0
30
0
70
128
71
47
72
63
73
-64
0
VERTEX
8
Sphere01
10
0
20
0
30
0
70
128
71
-47
72
64
73
48
0
VERTEX
8
Sphere01
10
0
20
0
30
0
70
128
71
48
72
64
73
-65
0
VERTEX
8
Sphere01
10
0
20
0
30
0
70
128
71
-48
72
65
73
49
0
VERTEX
8
Sphere01
10
0
20
0
30
0
70
128
71
49
72
65
73
-50
0
VERTEX
8
Sphere01
10
0
20
0
30
0
70
128
71
-49
72
50
73
34
0
VERTEX
8
Sphere01
10
0
20
0
30
0
70
128
71
50
72
66
73
-67
0
VERTEX
8
Sphere01
10
0
20
0
30
0
70
128
71
-50
72
67
73
51
0
VERTEX
8
Sphere01
10
0
20
0
30
0
70
128
71
51
72
67
73
-68
0
VERTEX
8
Sphere01
10
0
20
0
30
0
70
128
71
-51
72
68
73
52
0
VERTEX
8
Sphere01
10
0
20
0
30
0
70
128
71
52
72
68
73
-69
0
VERTEX
8
Sphere01
10
0
20
0
30
0
70
128
71
-52
72
69
73
53
0
VERTEX
8
Sphere01
10
0
20
0
30
0
70
128
71
53
72
69
73
-70
0
VERTEX
8
Sphere01
10
0
20
0
30
0
70
128
71
-53
72
70
73
54
0
VERTEX
8
Sphere01
10
0
20
0
30
0
70
128
71
54
72
70
73
-71
0
VERTEX
8
Sphere01
10
0
20
0
30
0
70
128
71
-54
72
71
73
55
0
VERTEX
8
Sphere01
10
0
20
0
30
0
70
128
71
55
72
71
73
-72
0
VERTEX
8
Sphere01
10
0
20
0
30
0
70
128
71
-55
72
72
73
56
0
VERTEX
8
Sphere01
10
0
20
0
30
0
70
128
71
56
72
72
73
-73
0
VERTEX
8
Sphere01
10
0
20
0
30
0
70
128
71
-56
72
73
73
57
0
VERTEX
8
Sphere01
10
0
20
0
30
0
70
128
71
57
72
73
73
-74
0
VERTEX
8
Sphere01
10
0
20
0
30
0
70
128
71
-57
72
74
73
58
0
VERTEX
8
Sphere01
10
0
20
0
30
0
70
128
71
58
72
74
73
-75
0
VERTEX
8
Sphere01
10
0
20
0
30
0
70
128
71
-58
72
75
73
59
0
VERTEX
8
Sphere01
10
0
20
0
30
0
70
128
71
59
72
75
73
-76
0
VERTEX
8
Sphere01
10
0
20
0
30
0
70
128
71
-59
72
76
73
60
0
VERTEX
8
Sphere01
10
0
20
0
30
0
70
128
71
60
72
76
73
-77
0
VERTEX
8
Sphere01
10
0
20
0
30
0
70
128
71
-60
72
77
73
61
0
VERTEX
8
Sphere01
10
0
20
0
30
0
70
128
71
61
72
77
73
-78
0
VERTEX
8
Sphere01
10
0
20
0
30
0
70
128
71
-61
72
78
73
62
0
VERTEX
8
Sphere01
10
0
20
0
30
0
70
128
71
62
72
78
73
-79
0
VERTEX
8
Sphere01
10
0
20
0
30
0
70
128
71
-62
72
79
73
63
0
VERTEX
8
Sphere01
10
0
20
0
30
0
70
128
71
63
72
79
73
-80
0
VERTEX
8
Sphere01
10
0
20
0
30
0
70
128
71
-63
72
80
73
64
0
VERTEX
8
Sphere01
10
0
20
0
30
0
70
128
71
64
72
80
73
-81
0
VERTEX
8
Sphere01
10
0
20
0
30
0
70
128
71
-64
72
81
73
65
0
VERTEX
8
Sphere01
10
0
20
0
30
0
70
128
71
65
72
81
73
-66
0
VERTEX
8
Sphere01
10
0
20
0
30
0
70
128
71
-65
72
66
73
50
0
VERTEX
8
Sphere01
10
0
20
0
30
0
70
128
71
66
72
82
73
-83
0
VERTEX
8
Sphere01
10
0
20
0
30
0
70
128
71
-66
72
83
73
67
0
VERTEX
8
Sphere01
10
0
20
0
30
0
70
128
71
67
72
83
73
-84
0
VERTEX
8
Sphere01
10
0
20
0
30
0
70
128
71
-67
72
84
73
68
0
VERTEX
8
Sphere01
10
0
20
0
30
0
70
128
71
68
72
84
73
-85
0
VERTEX
8
Sphere01
10
0
20
0
30
0
70
128
71
-68
72
85
73
69
0
VERTEX
8
Sphere01
10
0
20
0
30
0
70
128
71
69
72
85
73
-86
0
VERTEX
8
Sphere01
10
0
20
0
30
0
70
128
71
-69
72
86
73
70
0
VERTEX
8
Sphere01
10
0
20
0
30
0
70
128
71
70
72
86
73
-87
0
VERTEX
8
Sphere01
10
0
20
0
30
0
70
128
71
-70
72
87
73
71
0
VERTEX
8
Sphere01
10
0
20
0
30
0
70
128
71
71
72
87
73
-88
0
VERTEX
8
Sphere01
10
0
20
0
30
0
70
128
71
-71
72
88
73
72
0
VERTEX
8
Sphere01
10
0
20
0
30
0
70
128
71
72
72
88
73
-89
0
VERTEX
8
Sphere01
10
0
20
0
30
0
70
128
71
-72
72
89
73
73
0
VERTEX
8
Sphere01
10
0
20
0
30
0
70
128
71
73
72
89
73
-90
0
VERTEX
8
Sphere01
10
0
20
0
30
0
70
128
71
-73
72
90
73
74
0
VERTEX
8
Sphere01
10
0
20
0
30
0
70
128
71
74
72
90
73
-91
0
VERTEX
8
Sphere01
10
0
20
0
30
0
70
128
71
-74
72
91
73
75
0
VERTEX
8
Sphere01
10
0
20
0
30
0
70
128
71
75
72
91
73
-92
0
VERTEX
8
Sphere01
10
0
20
0
30
0
70
128
71
-75
72
92
73
76
0
VERTEX
8
Sphere01
10
0
20
0
30
0
70
128
71
76
72
92
73
-93
0
VERTEX
8
Sphere01
10
0
20
0
30
0
70
128
71
-76
72
93
73
77
0
VERTEX
8
Sphere01
10
0
20
0
30
0
70
128
71
77
72
93
73
-94
0
VERTEX
8
Sphere01
10
0
20
0
30
0
70
128
71
-77
72
94
73
78
0
VERTEX
8
Sphere01
10
0
20
0
30
0
70
128
71
78
72
94
73
-95
0
VERTEX
8
Sphere01
10
0
20
0
30
0
70
128
71
-78
72
95
73
79
0
VERTEX
8
Sphere01
10
0
20
0
30
0
70
128
71
79
72
95
73
-96
0
VERTEX
8
Sphere01
10
0
20
0
30
0
70
128
71
-79
72
96
73
80
0
VERTEX
8
Sphere01
10
0
20
0
30
0
70
128
71
80
72
96
73
-97
0
VERTEX
8
Sphere01
10
0
20
0
30
0
70
128
71
-80
72
97
73
81
0
VERTEX
8
Sphere01
10
0
20
0
30
0
70
128
71
81
72
97
73
-82
0
VERTEX
8
Sphere01
10
0
20
0
30
0
70
128
71
-81
72
82
73
66
0
VERTEX
8
Sphere01
10
0
20
0
30
0
70
128
71
82
72
98
73
-99
0
VERTEX
8
Sphere01
10
0
20
0
30
0
70
128
71
-82
72
99
73
83
0
VERTEX
8
Sphere01
10
0
20
0
30
0
70
128
71
83
72
99
73
-100
0
VERTEX
8
Sphere01
10
0
20
0
30
0
70
128
71
-83
72
100
73
84
0
VERTEX
8
Sphere01
10
0
20
0
30
0
70
128
71
84
72
100
73
-101
0
VERTEX
8
Sphere01
10
0
20
0
30
0
70
128
71
-84
72
101
73
85
0
VERTEX
8
Sphere01
10
0
20
0
30
0
70
128
71
85
72
101
73
-102
0
VERTEX
8
Sphere01
10
0
20
0
30
0
70
128
71
-85
72
102
73
86
0
VERTEX
8
Sphere01
10
0
20
0
30
0
70
128
71
86
72
102
73
-103
0
VERTEX
8
Sphere01
10
0
20
0
30
0
70
128
71
-86
72
103
73
87
0
VERTEX
8
Sphere01
10
0
20
0
30
0
70
128
71
87
72
103
73
-104
0
VERTEX
8
Sphere01
10
0
20
0
30
0
70
128
71
-87
72
104
73
88
0
VERTEX
8
Sphere01
10
0
20
0
30
0
70
128
71
88
72
104
73
-105
0
VERTEX
8
Sphere01
10
0
20
0
30
0
70
128
71
-88
72
105
73
89
0
VERTEX
8
Sphere01
10
0
20
0
30
0
70
128
71
89
72
105
73
-106
0
VERTEX
8
Sphere01
10
0
20
0
30
0
70
128
71
-89
72
106
73
90
0
VERTEX
8
Sphere01
10
0
20
0
30
0
70
128
71
90
72
106
73
-107
0
VERTEX
8
Sphere01
10
0
20
0
30
0
70
128
71
-90
72
107
73
91
0
VERTEX
8
Sphere01
10
0
20
0
30
0
70
128
71
91
72
107
73
-108
0
VERTEX
8
Sphere01
10
0
20
0
30
0
70
128
71
-91
72
108
73
92
0
VERTEX
8
Sphere01
10
0
20
0
30
0
70
128
71
92
72
108
73
-109
0
VERTEX
8
Sphere01
10
0
20
0
30
0
70
128
71
-92
72
109
73
93
0
VERTEX
8
Sphere01
10
0
20
0
30
0
70
128
71
93
72
109
73
-110
0
VERTEX
8
Sphere01
10
0
20
0
30
0
70
128
71
-93
72
110
73
94
0
VERTEX
8
Sphere01
10
0
20
0
30
0
70
128
71
94
72
110
73
-111
0
VERTEX
8
Sphere01
10
0
20
0
30
0
70
128
71
-94
72
111
73
95
0
VERTEX
8
Sphere01
10
0
20
0
30
0
70
128
71
95
72
111
73
-112
0
VERTEX
8
Sphere01
10
0
20
0
30
0
70
128
71
-95
72
112
73
96
0
VERTEX
8
Sphere01
10
0
20
0
30
0
70
128
71
96
72
112
73
-113
0
VERTEX
8
Sphere01
10
0
20
0
30
0
70
128
71
-96
72
113
73
97
0
VERTEX
8
Sphere01
10
0
20
0
30
0
70
128
71
97
72
113
73
-98
0
VERTEX
8
Sphere01
10
0
20
0
30
0
70
128
71
-97
72
98
73
82
0
VERTEX
8
Sphere01
10
0
20
0
30
0
70
128
71
114
72
99
73
98
0
VERTEX
8
Sphere01
10
0
20
0
30
0
70
128
71
114
72
100
73
99
0
VERTEX
8
Sphere01
10
0
20
0
30
0
70
128
71
114
72
101
73
100
0
VERTEX
8
Sphere01
10
0
20
0
30
0
70
128
71
114
72
102
73
101
0
VERTEX
8
Sphere01
10
0
20
0
30
0
70
128
71
114
72
103
73
102
0
VERTEX
8
Sphere01
10
0
20
0
30
0
70
128
71
114
72
104
73
103
0
VERTEX
8
Sphere01
10
0
20
0
30
0
70
128
71
114
72
105
73
104
0
VERTEX
8
Sphere01
10
0
20
0
30
0
70
128
71
114
72
106
73
105
0
VERTEX
8
Sphere01
10
0
20
0
30
0
70
128
71
114
72
107
73
106
0
VERTEX
8
Sphere01
10
0
20
0
30
0
70
128
71
114
72
108
73
107
0
VERTEX
8
Sphere01
10
0
20
0
30
0
70
128
71
114
72
109
73
108
0
VERTEX
8
Sphere01
10
0
20
0
30
0
70
128
71
114
72
110
73
109
0
VERTEX
8
Sphere01
10
0
20
0
30
0
70
128
71
114
72
111
73
110
0
VERTEX
8
Sphere01
10
0
20
0
30
0
70
128
71
114
72
112
73
111
0
VERTEX
8
Sphere01
10
0
20
0
30
0
70
128
71
114
72
113
73
112
0
VERTEX
8
Sphere01
10
0
20
0
30
0
70
128
71
114
72
98
73
113
0
SEQEND
8
Sphere01
0
POLYLINE
8
Sphere02
66
1
70
64
71
114
72
224
62
192
0
VERTEX
8
Sphere02
10
-0.000080
20
-0.000041
30
38.525959
70
192
0
VERTEX
8
Sphere02
10
-0.000081
20
4.400818
30
37.650574
70
192
0
VERTEX
8
Sphere02
10
-1.684217
20
4.065823
30
37.650574
70
192
0
VERTEX
8
Sphere02
10
-3.111958
20
3.111836
30
37.650574
70
192
0
VERTEX
8
Sphere02
10
-4.065945
20
1.684094
30
37.650574
70
192
0
VERTEX
8
Sphere02
10
-4.400940
20
-0.000042
30
37.650574
70
192
0
VERTEX
8
Sphere02
10
-4.065944
20
-1.684178
30
37.650574
70
192
0
VERTEX
8
Sphere02
10
-3.111958
20
-3.111919
30
37.650574
70
192
0
VERTEX
8
Sphere02
10
-1.684216
20
-4.065906
30
37.650574
70
192
0
VERTEX
8
Sphere02
10
-0.000080
20
-4.400901
30
37.650574
70
192
0
VERTEX
8
Sphere02
10
1.684056
20
-4.065905
30
37.650574
70
192
0
VERTEX
8
Sphere02
10
3.111798
20
-3.111918
30
37.650574
70
192
0
VERTEX
8
Sphere02
10
4.065784
20
-1.684177
30
37.650574
70
192
0
VERTEX
8
Sphere02
10
4.400779
20
-0.000040
30
37.650574
70
192
0
VERTEX
8
Sphere02
10
4.065784
20
1.684096
30
37.650574
70
192
0
VERTEX
8
Sphere02
10
3.111797
20
3.111837
30
37.650574
70
192
0
VERTEX
8
Sphere02
10
1.684055
20
4.065823
30
37.650574
70
192
0
VERTEX
8
Sphere02
10
-0.000081
20
8.131686
30
35.157688
70
192
0
VERTEX
8
Sphere02
10
-3.111958
20
7.512695
30
35.157688
70
192
0
VERTEX
8
Sphere02
10
-5.750081
20
5.749958
30
35.157688
70
192
0
VERTEX
8
Sphere02
10
-7.512817
20
3.111836
30
35.157688
70
192
0
VERTEX
8
Sphere02
10
-8.131808
20
-0.000042
30
35.157688
70
192
0
VERTEX
8
Sphere02
10
-7.512817
20
-3.111920
30
35.157688
70
192
0
VERTEX
8
Sphere02
10
-5.750080
20
-5.750041
30
35.157688
70
192
0
VERTEX
8
Sphere02
10
-3.111957
20
-7.512778
30
35.157688
70
192
0
VERTEX
8
Sphere02
10
-0.000079
20
-8.131769
30
35.157688
70
192
0
VERTEX
8
Sphere02
10
3.111798
20
-7.512778
30
35.157688
70
192
0
VERTEX
8
Sphere02
10
5.749921
20
-5.750040
30
35.157688
70
192
0
VERTEX
8
Sphere02
10
7.512657
20
-3.111917
30
35.157688
70
192
0
VERTEX
8
Sphere02
10
8.131647
20
-0.000040
30
35.157688
70
192
0
VERTEX
8
Sphere02
10
7.512656
20
3.111838
30
35.157688
70
192
0
VERTEX
8
Sphere02
10
5.749918
20
5.749960
30
35.157688
70
192
0
VERTEX
8
Sphere02
10
3.111796
20
7.512696
30
35.157688
70
192
0
VERTEX
8
Sphere02
10
-0.000081
20
10.624573
30
31.426821
70
192
0
VERTEX
8
Sphere02
10
-4.065945
20
9.815823
30
31.426821
70
192
0
VERTEX
8
Sphere02
10
-7.512818
20
7.512695
30
31.426821
70
192
0
VERTEX
8
Sphere02
10
-9.815944
20
4.065822
30
31.426821
70
192
0
VERTEX
8
Sphere02
10
-10.624695
20
-0.000042
30
31.426821
70
192
0
VERTEX
8
Sphere02
10
-9.815944
20
-4.065906
30
31.426821
70
192
0
VERTEX
8
Sphere02
10
-7.512816
20
-7.512779
30
31.426821
70
192
0
VERTEX
8
Sphere02
10
-4.065943
20
-9.815905
30
31.426821
70
192
0
VERTEX
8
Sphere02
10
-0.000079
20
-10.624656
30
31.426821
70
192
0
VERTEX
8
Sphere02
10
4.065785
20
-9.815904
30
31.426821
70
192
0
VERTEX
8
Sphere02
10
7.512658
20
-7.512777
30
31.426821
70
192
0
VERTEX
8
Sphere02
10
9.815784
20
-4.065904
30
31.426821
70
192
0
VERTEX
8
Sphere02
10
10.624534
20
-0.000039
30
31.426821
70
192
0
VERTEX
8
Sphere02
10
9.815783
20
4.065825
30
31.426821
70
192
0
VERTEX
8
Sphere02
10
7.512655
20
7.512697
30
31.426821
70
192
0
VERTEX
8
Sphere02
10
4.065782
20
9.815824
30
31.426821
70
192
0
VERTEX
8
Sphere02
10
-0.000081
20
11.499959
30
27.025961
70
192
0
VERTEX
8
Sphere02
10
-4.400940
20
10.624573
30
27.025961
70
192
0
VERTEX
8
Sphere02
10
-8.131808
20
8.131686
30
27.025961
70
192
0
VERTEX
8
Sphere02
10
-10.624695
20
4.400817
30
27.025961
70
192
0
VERTEX
8
Sphere02
10
-11.500080
20
-0.000042
30
27.025961
70
192
0
VERTEX
8
Sphere02
10
-10.624695
20
-4.400902
30
27.025961
70
192
0
VERTEX
8
Sphere02
10
-8.131807
20
-8.131770
30
27.025961
70
192
0
VERTEX
8
Sphere02
10
-4.400939
20
-10.624657
30
27.025961
70
192
0
VERTEX
8
Sphere02
10
-0.000079
20
-11.500041
30
27.025961
70
192
0
VERTEX
8
Sphere02
10
4.400781
20
-10.624655
30
27.025961
70
192
0
VERTEX
8
Sphere02
10
8.131649
20
-8.131768
30
27.025961
70
192
0
VERTEX
8
Sphere02
10
10.624536
20
-4.400899
30
27.025961
70
192
0
VERTEX
8
Sphere02
10
11.499919
20
-0.000039
30
27.025961
70
192
0
VERTEX
8
Sphere02
10
10.624533
20
4.400820
30
27.025961
70
192
0
VERTEX
8
Sphere02
10
8.131646
20
8.131688
30
27.025961
70
192
0
VERTEX
8
Sphere02
10
4.400777
20
10.624575
30
27.025961
70
192
0
VERTEX
8
Sphere02
10
-0.000081
20
10.624573
30
22.625101
70
192
0
VERTEX
8
Sphere02
10
-4.065945
20
9.815823
30
22.625101
70
192
0
VERTEX
8
Sphere02
10
-7.512818
20
7.512695
30
22.625101
70
192
0
VERTEX
8
Sphere02
10
-9.815944
20
4.065822
30
22.625101
70
192
0
VERTEX
8
Sphere02
10
-10.624695
20
-0.000042
30
22.625101
70
192
0
VERTEX
8
Sphere02
10
-9.815944
20
-4.065906
30
22.625101
70
192
0
VERTEX
8
Sphere02
10
-7.512816
20
-7.512779
30
22.625101
70
192
0
VERTEX
8
Sphere02
10
-4.065943
20
-9.815905
30
22.625101
70
192
0
VERTEX
8
Sphere02
10
-0.000079
20
-10.624656
30
22.625101
70
192
0
VERTEX
8
Sphere02
10
4.065785
20
-9.815904
30
22.625101
70
192
0
VERTEX
8
Sphere02
10
7.512658
20
-7.512777
30
22.625101
70
192
0
VERTEX
8
Sphere02
10
9.815784
20
-4.065904
30
22.625101
70
192
0
VERTEX
8
Sphere02
10
10.624534
20
-0.000039
30
22.625101
70
192
0
VERTEX
8
Sphere02
10
9.815783
20
4.065825
30
22.625101
70
192
0
VERTEX
8
Sphere02
10
7.512655
20
7.512697
30
22.625101
70
192
0
VERTEX
8
Sphere02
10
4.065782
20
9.815824
30
22.625101
70
192
0
VERTEX
8
Sphere02
10
-0.000081
20
8.131686
30
18.894232
70
192
0
VERTEX
8
Sphere02
10
-3.111958
20
7.512695
30
18.894232
70
192
0
VERTEX
8
Sphere02
10
-5.750080
20
5.749958
30
18.894232
70
192
0
VERTEX
8
Sphere02
10
-7.512817
20
3.111835
30
18.894232
70
192
0
VERTEX
8
Sphere02
10
-8.131807
20
-0.000042
30
18.894232
70
192
0
VERTEX
8
Sphere02
10
-7.512816
20
-3.111919
30
18.894232
70
192
0
VERTEX
8
Sphere02
10
-5.750079
20
-5.750041
30
18.894232
70
192
0
VERTEX
8
Sphere02
10
-3.111957
20
-7.512778
30
18.894232
70
192
0
VERTEX
8
Sphere02
10
-0.000079
20
-8.131768
30
18.894232
70
192
0
VERTEX
8
Sphere02
10
3.111798
20
-7.512777
30
18.894232
70
192
0
VERTEX
8
Sphere02
10
5.749920
20
-5.750040
30
18.894232
70
192
0
VERTEX
8
Sphere02
10
7.512657
20
-3.111917
30
18.894232
70
192
0
VERTEX
8
Sphere02
10
8.131647
20
-0.000040
30
18.894232
70
192
0
VERTEX
8
Sphere02
10
7.512656
20
3.111837
30
18.894232
70
192
0
VERTEX
8
Sphere02
10
5.749918
20
5.749959
30
18.894232
70
192
0
VERTEX
8
Sphere02
10
3.111795
20
7.512696
30
18.894232
70
192
0
VERTEX
8
Sphere02
10
-0.000081
20
4.400817
30
16.401346
70
192
0
VERTEX
8
Sphere02
10
-1.684216
20
4.065822
30
16.401346
70
192
0
VERTEX
8
Sphere02
10
-3.111958
20
3.111835
30
16.401346
70
192
0
VERTEX
8
Sphere02
10
-4.065944
20
1.684094
30
16.401346
70
192
0
VERTEX
8
Sphere02
10
-4.400939
20
-0.000042
30
16.401346
70
192
0
VERTEX
8
Sphere02
10
-4.065943
20
-1.684177
30
16.401346
70
192
0
VERTEX
8
Sphere02
10
-3.111957
20
-3.111918
30
16.401346
70
192
0
VERTEX
8
Sphere02
10
-1.684216
20
-4.065905
30
16.401346
70
192
0
VERTEX
8
Sphere02
10
-0.000080
20
-4.400900
30
16.401346
70
192
0
VERTEX
8
Sphere02
10
1.684056
20
-4.065904
30
16.401346
70
192
0
VERTEX
8
Sphere02
10
3.111797
20
-3.111918
30
16.401346
70
192
0
VERTEX
8
Sphere02
10
4.065784
20
-1.684176
30
16.401346
70
192
0
VERTEX
8
Sphere02
10
4.400778
20
-0.000040
30
16.401346
70
192
0
VERTEX
8
Sphere02
10
4.065783
20
1.684095
30
16.401346
70
192
0
VERTEX
8
Sphere02
10
3.111796
20
3.111836
30
16.401346
70
192
0
VERTEX
8
Sphere02
10
1.684054
20
4.065823
30
16.401346
70
192
0
VERTEX
8
Sphere02
10
-0.000080
20
-0.000041
30
15.525961
70
192
0
VERTEX
8
Sphere02
10
0
20
0
30
0
70
128
71
1
72
2
73
3
0
VERTEX
8
Sphere02
10
0
20
0
30
0
70
128
71
1
72
3
73
4
0
VERTEX
8
Sphere02
10
0
20
0
30
0
70
128
71
1
72
4
73
5
0
VERTEX
8
Sphere02
10
0
20
0
30
0
70
128
71
1
72
5
73
6
0
VERTEX
8
Sphere02
10
0
20
0
30
0
70
128
71
1
72
6
73
7
0
VERTEX
8
Sphere02
10
0
20
0
30
0
70
128
71
1
72
7
73
8
0
VERTEX
8
Sphere02
10
0
20
0
30
0
70
128
71
1
72
8
73
9
0
VERTEX
8
Sphere02
10
0
20
0
30
0
70
128
71
1
72
9
73
10
0
VERTEX
8
Sphere02
10
0
20
0
30
0
70
128
71
1
72
10
73
11
0
VERTEX
8
Sphere02
10
0
20
0
30
0
70
128
71
1
72
11
73
12
0
VERTEX
8
Sphere02
10
0
20
0
30
0
70
128
71
1
72
12
73
13
0
VERTEX
8
Sphere02
10
0
20
0
30
0
70
128
71
1
72
13
73
14
0
VERTEX
8
Sphere02
10
0
20
0
30
0
70
128
71
1
72
14
73
15
0
VERTEX
8
Sphere02
10
0
20
0
30
0
70
128
71
1
72
15
73
16
0
VERTEX
8
Sphere02
10
0
20
0
30
0
70
128
71
1
72
16
73
17
0
VERTEX
8
Sphere02
10
0
20
0
30
0
70
128
71
1
72
17
73
2
0
VERTEX
8
Sphere02
10
0
20
0
30
0
70
128
71
2
72
18
73
-19
0
VERTEX
8
Sphere02
10
0
20
0
30
0
70
128
71
-2
72
19
73
3
0
VERTEX
8
Sphere02
10
0
20
0
30
0
70
128
71
3
72
19
73
-20
0
VERTEX
8
Sphere02
10
0
20
0
30
0
70
128
71
-3
72
20
73
4
0
VERTEX
8
Sphere02
10
0
20
0
30
0
70
128
71
4
72
20
73
-21
0
VERTEX
8
Sphere02
10
0
20
0
30
0
70
128
71
-4
72
21
73
5
0
VERTEX
8
Sphere02
10
0
20
0
30
0
70
128
71
5
72
21
73
-22
0
VERTEX
8
Sphere02
10
0
20
0
30
0
70
128
71
-5
72
22
73
6
0
VERTEX
8
Sphere02
10
0
20
0
30
0
70
128
71
6
72
22
73
-23
0
VERTEX
8
Sphere02
10
0
20
0
30
0
70
128
71
-6
72
23
73
7
0
VERTEX
8
Sphere02
10
0
20
0
30
0
70
128
71
7
72
23
73
-24
0
VERTEX
8
Sphere02
10
0
20
0
30
0
70
128
71
-7
72
24
73
8
0
VERTEX
8
Sphere02
10
0
20
0
30
0
70
128
71
8
72
24
73
-25
0
VERTEX
8
Sphere02
10
0
20
0
30
0
70
128
71
-8
72
25
73
9
0
VERTEX
8
Sphere02
10
0
20
0
30
0
70
128
71
9
72
25
73
-26
0
VERTEX
8
Sphere02
10
0
20
0
30
0
70
128
71
-9
72
26
73
10
0
VERTEX
8
Sphere02
10
0
20
0
30
0
70
128
71
10
72
26
73
-27
0
VERTEX
8
Sphere02
10
0
20
0
30
0
70
128
71
-10
72
27
73
11
0
VERTEX
8
Sphere02
10
0
20
0
30
0
70
128
71
11
72
27
73
-28
0
VERTEX
8
Sphere02
10
0
20
0
30
0
70
128
71
-11
72
28
73
12
0
VERTEX
8
Sphere02
10
0
20
0
30
0
70
128
71
12
72
28
73
-29
0
VERTEX
8
Sphere02
10
0
20
0
30
0
70
128
71
-12
72
29
73
13
0
VERTEX
8
Sphere02
10
0
20
0
30
0
70
128
71
13
72
29
73
-30
0
VERTEX
8
Sphere02
10
0
20
0
30
0
70
128
71
-13
72
30
73
14
0
VERTEX
8
Sphere02
10
0
20
0
30
0
70
128
71
14
72
30
73
-31
0
VERTEX
8
Sphere02
10
0
20
0
30
0
70
128
71
-14
72
31
73
15
0
VERTEX
8
Sphere02
10
0
20
0
30
0
70
128
71
15
72
31
73
-32
0
VERTEX
8
Sphere02
10
0
20
0
30
0
70
128
71
-15
72
32
73
16
0
VERTEX
8
Sphere02
10
0
20
0
30
0
70
128
71
16
72
32
73
-33
0
VERTEX
8
Sphere02
10
0
20
0
30
0
70
128
71
-16
72
33
73
17
0
VERTEX
8
Sphere02
10
0
20
0
30
0
70
128
71
17
72
33
73
-18
0
VERTEX
8
Sphere02
10
0
20
0
30
0
70
128
71
-17
72
18
73
2
0
VERTEX
8
Sphere02
10
0
20
0
30
0
70
128
71
18
72
34
73
-35
0
VERTEX
8
Sphere02
10
0
20
0
30
0
70
128
71
-18
72
35
73
19
0
VERTEX
8
Sphere02
10
0
20
0
30
0
70
128
71
19
72
35
73
-36
0
VERTEX
8
Sphere02
10
0
20
0
30
0
70
128
71
-19
72
36
73
20
0
VERTEX
8
Sphere02
10
0
20
0
30
0
70
128
71
20
72
36
73
-37
0
VERTEX
8
Sphere02
10
0
20
0
30
0
70
128
71
-20
72
37
73
21
0
VERTEX
8
Sphere02
10
0
20
0
30
0
70
128
71
21
72
37
73
-38
0
VERTEX
8
Sphere02
10
0
20
0
30
0
70
128
71
-21
72
38
73
22
0
VERTEX
8
Sphere02
10
0
20
0
30
0
70
128
71
22
72
38
73
-39
0
VERTEX
8
Sphere02
10
0
20
0
30
0
70
128
71
-22
72
39
73
23
0
VERTEX
8
Sphere02
10
0
20
0
30
0
70
128
71
23
72
39
73
-40
0
VERTEX
8
Sphere02
10
0
20
0
30
0
70
128
71
-23
72
40
73
24
0
VERTEX
8
Sphere02
10
0
20
0
30
0
70
128
71
24
72
40
73
-41
0
VERTEX
8
Sphere02
10
0
20
0
30
0
70
128
71
-24
72
41
73
25
0
VERTEX
8
Sphere02
10
0
20
0
30
0
70
128
71
25
72
41
73
-42
0
VERTEX
8
Sphere02
10
0
20
0
30
0
70
128
71
-25
72
42
73
26
0
VERTEX
8
Sphere02
10
0
20
0
30
0
70
128
71
26
72
42
73
-43
0
VERTEX
8
Sphere02
10
0
20
0
30
0
70
128
71
-26
72
43
73
27
0
VERTEX
8
Sphere02
10
0
20
0
30
0
70
128
71
27
72
43
73
-44
0
VERTEX
8
Sphere02
10
0
20
0
30
0
70
128
71
-27
72
44
73
28
0
VERTEX
8
Sphere02
10
0
20
0
30
0
70
128
71
28
72
44
73
-45
0
VERTEX
8
Sphere02
10
0
20
0
30
0
70
128
71
-28
72
45
73
29
0
VERTEX
8
Sphere02
10
0
20
0
30
0
70
128
71
29
72
45
73
-46
0
VERTEX
8
Sphere02
10
0
20
0
30
0
70
128
71
-29
72
46
73
30
0
VERTEX
8
Sphere02
10
0
20
0
30
0
70
128
71
30
72
46
73
-47
0
VERTEX
8
Sphere02
10
0
20
0
30
0
70
128
71
-30
72
47
73
31
0
VERTEX
8
Sphere02
10
0
20
0
30
0
70
128
71
31
72
47
73
-48
0
VERTEX
8
Sphere02
10
0
20
0
30
0
70
128
71
-31
72
48
73
32
0
VERTEX
8
Sphere02
10
0
20
0
30
0
70
128
71
32
72
48
73
-49
0
VERTEX
8
Sphere02
10
0
20
0
30
0
70
128
71
-32
72
49
73
33
0
VERTEX
8
Sphere02
10
0
20
0
30
0
70
128
71
33
72
49
73
-34
0
VERTEX
8
Sphere02
10
0
20
0
30
0
70
128
71
-33
72
34
73
18
0
VERTEX
8
Sphere02
10
0
20
0
30
0
70
128
71
34
72
50
73
-51
0
VERTEX
8
Sphere02
10
0
20
0
30
0
70
128
71
-34
72
51
73
35
0
VERTEX
8
Sphere02
10
0
20
0
30
0
70
128
71
35
72
51
73
-52
0
VERTEX
8
Sphere02
10
0
20
0
30
0
70
128
71
-35
72
52
73
36
0
VERTEX
8
Sphere02
10
0
20
0
30
0
70
128
71
36
72
52
73
-53
0
VERTEX
8
Sphere02
10
0
20
0
30
0
70
128
71
-36
72
53
73
37
0
VERTEX
8
Sphere02
10
0
20
0
30
0
70
128
71
37
72
53
73
-54
0
VERTEX
8
Sphere02
10
0
20
0
30
0
70
128
71
-37
72
54
73
38
0
VERTEX
8
Sphere02
10
0
20
0
30
0
70
128
71
38
72
54
73
-55
0
VERTEX
8
Sphere02
10
0
20
0
30
0
70
128
71
-38
72
55
73
39
0
VERTEX
8
Sphere02
10
0
20
0
30
0
70
128
71
39
72
55
73
-56
0
VERTEX
8
Sphere02
10
0
20
0
30
0
70
128
71
-39
72
56
73
40
0
VERTEX
8
Sphere02
10
0
20
0
30
0
70
128
71
40
72
56
73
-57
0
VERTEX
8
Sphere02
10
0
20
0
30
0
70
128
71
-40
72
57
73
41
0
VERTEX
8
Sphere02
10
0
20
0
30
0
70
128
71
41
72
57
73
-58
0
VERTEX
8
Sphere02
10
0
20
0
30
0
70
128
71
-41
72
58
73
42
0
VERTEX
8
Sphere02
10
0
20
0
30
0
70
128
71
42
72
58
73
-59
0
VERTEX
8
Sphere02
10
0
20
0
30
0
70
128
71
-42
72
59
73
43
0
VERTEX
8
Sphere02
10
0
20
0
30
0
70
128
71
43
72
59
73
-60
0
VERTEX
8
Sphere02
10
0
20
0
30
0
70
128
71
-43
72
60
73
44
0
VERTEX
8
Sphere02
10
0
20
0
30
0
70
128
71
44
72
60
73
-61
0
VERTEX
8
Sphere02
10
0
20
0
30
0
70
128
71
-44
72
61
73
45
0
VERTEX
8
Sphere02
10
0
20
0
30
0
70
128
71
45
72
61
73
-62
0
VERTEX
8
Sphere02
10
0
20
0
30
0
70
128
71
-45
72
62
73
46
0
VERTEX
8
Sphere02
10
0
20
0
30
0
70
128
71
46
72
62
73
-63
0
VERTEX
8
Sphere02
10
0
20
0
30
0
70
128
71
-46
72
63
73
47
0
VERTEX
8
Sphere02
10
0
20
0
30
0
70
128
71
47
72
63
73
-64
0
VERTEX
8
Sphere02
10
0
20
0
30
0
70
128
71
-47
72
64
73
48
0
VERTEX
8
Sphere02
10
0
20
0
30
0
70
128
71
48
72
64
73
-65
0
VERTEX
8
Sphere02
10
0
20
0
30
0
70
128
71
-48
72
65
73
49
0
VERTEX
8
Sphere02
10
0
20
0
30
0
70
128
71
49
72
65
73
-50
0
VERTEX
8
Sphere02
10
0
20
0
30
0
70
128
71
-49
72
50
73
34
0
VERTEX
8
Sphere02
10
0
20
0
30
0
70
128
71
50
72
66
73
-67
0
VERTEX
8
Sphere02
10
0
20
0
30
0
70
128
71
-50
72
67
73
51
0
VERTEX
8
Sphere02
10
0
20
0
30
0
70
128
71
51
72
67
73
-68
0
VERTEX
8
Sphere02
10
0
20
0
30
0
70
128
71
-51
72
68
73
52
0
VERTEX
8
Sphere02
10
0
20
0
30
0
70
128
71
52
72
68
73
-69
0
VERTEX
8
Sphere02
10
0
20
0
30
0
70
128
71
-52
72
69
73
53
0
VERTEX
8
Sphere02
10
0
20
0
30
0
70
128
71
53
72
69
73
-70
0
VERTEX
8
Sphere02
10
0
20
0
30
0
70
128
71
-53
72
70
73
54
0
VERTEX
8
Sphere02
10
0
20
0
30
0
70
128
71
54
72
70
73
-71
0
VERTEX
8
Sphere02
10
0
20
0
30
0
70
128
71
-54
72
71
73
55
0
VERTEX
8
Sphere02
10
0
20
0
30
0
70
128
71
55
72
71
73
-72
0
VERTEX
8
Sphere02
10
0
20
0
30
0
70
128
71
-55
72
72
73
56
0
VERTEX
8
Sphere02
10
0
20
0
30
0
70
128
71
56
72
72
73
-73
0
VERTEX
8
Sphere02
10
0
20
0
30
0
70
128
71
-56
72
73
73
57
0
VERTEX
8
Sphere02
10
0
20
0
30
0
70
128
71
57
72
73
73
-74
0
VERTEX
8
Sphere02
10
0
20
0
30
0
70
128
71
-57
72
74
73
58
0
VERTEX
8
Sphere02
10
0
20
0
30
0
70
128
71
58
72
74
73
-75
0
VERTEX
8
Sphere02
10
0
20
0
30
0
70
128
71
-58
72
75
73
59
0
VERTEX
8
Sphere02
10
0
20
0
30
0
70
128
71
59
72
75
73
-76
0
VERTEX
8
Sphere02
10
0
20
0
30
0
70
128
71
-59
72
76
73
60
0
VERTEX
8
Sphere02
10
0
20
0
30
0
70
128
71
60
72
76
73
-77
0
VERTEX
8
Sphere02
10
0
20
0
30
0
70
128
71
-60
72
77
73
61
0
VERTEX
8
Sphere02
10
0
20
0
30
0
70
128
71
61
72
77
73
-78
0
VERTEX
8
Sphere02
10
0
20
0
30
0
70
128
71
-61
72
78
73
62
0
VERTEX
8
Sphere02
10
0
20
0
30
0
70
128
71
62
72
78
73
-79
0
VERTEX
8
Sphere02
10
0
20
0
30
0
70
128
71
-62
72
79
73
63
0
VERTEX
8
Sphere02
10
0
20
0
30
0
70
128
71
63
72
79
73
-80
0
VERTEX
8
Sphere02
10
0
20
0
30
0
70
128
71
-63
72
80
73
64
0
VERTEX
8
Sphere02
10
0
20
0
30
0
70
128
71
64
72
80
73
-81
0
VERTEX
8
Sphere02
10
0
20
0
30
0
70
128
71
-64
72
81
73
65
0
VERTEX
8
Sphere02
10
0
20
0
30
0
70
128
71
65
72
81
73
-66
0
VERTEX
8
Sphere02
10
0
20
0
30
0
70
128
71
-65
72
66
73
50
0
VERTEX
8
Sphere02
10
0
20
0
30
0
70
128
71
66
72
82
73
-83
0
VERTEX
8
Sphere02
10
0
20
0
30
0
70
128
71
-66
72
83
73
67
0
VERTEX
8
Sphere02
10
0
20
0
30
0
70
128
71
67
72
83
73
-84
0
VERTEX
8
Sphere02
10
0
20
0
30
0
70
128
71
-67
72
84
73
68
0
VERTEX
8
Sphere02
10
0
20
0
30
0
70
128
71
68
72
84
73
-85
0
VERTEX
8
Sphere02
10
0
20
0
30
0
70
128
71
-68
72
85
73
69
0
VERTEX
8
Sphere02
10
0
20
0
30
0
70
128
71
69
72
85
73
-86
0
VERTEX
8
Sphere02
10
0
20
0
30
0
70
128
71
-69
72
86
73
70
0
VERTEX
8
Sphere02
10
0
20
0
30
0
70
128
71
70
72
86
73
-87
0
VERTEX
8
Sphere02
10
0
20
0
30
0
70
128
71
-70
72
87
73
71
0
VERTEX
8
Sphere02
10
0
20
0
30
0
70
128
71
71
72
87
73
-88
0
VERTEX
8
Sphere02
10
0
20
0
30
0
70
128
71
-71
72
88
73
72
0
VERTEX
8
Sphere02
10
0
20
0
30
0
70
128
71
72
72
88
73
-89
0
VERTEX
8
Sphere02
10
0
20
0
30
0
70
128
71
-72
72
89
73
73
0
VERTEX
8
Sphere02
10
0
20
0
30
0
70
128
71
73
72
89
73
-90
0
VERTEX
8
Sphere02
10
0
20
0
30
0
70
128
71
-73
72
90
73
74
0
VERTEX
8
Sphere02
10
0
20
0
30
0
70
128
71
74
72
90
73
-91
0
VERTEX
8
Sphere02
10
0
20
0
30
0
70
128
71
-74
72
91
73
75
0
VERTEX
8
Sphere02
10
0
20
0
30
0
70
128
71
75
72
91
73
-92
0
VERTEX
8
Sphere02
10
0
20
0
30
0
70
128
71
-75
72
92
73
76
0
VERTEX
8
Sphere02
10
0
20
0
30
0
70
128
71
76
72
92
73
-93
0
VERTEX
8
Sphere02
10
0
20
0
30
0
70
128
71
-76
72
93
73
77
0
VERTEX
8
Sphere02
10
0
20
0
30
0
70
128
71
77
72
93
73
-94
0
VERTEX
8
Sphere02
10
0
20
0
30
0
70
128
71
-77
72
94
73
78
0
VERTEX
8
Sphere02
10
0
20
0
30
0
70
128
71
78
72
94
73
-95
0
VERTEX
8
Sphere02
10
0
20
0
30
0
70
128
71
-78
72
95
73
79
0
VERTEX
8
Sphere02
10
0
20
0
30
0
70
128
71
79
72
95
73
-96
0
VERTEX
8
Sphere02
10
0
20
0
30
0
70
128
71
-79
72
96
73
80
0
VERTEX
8
Sphere02
10
0
20
0
30
0
70
128
71
80
72
96
73
-97
0
VERTEX
8
Sphere02
10
0
20
0
30
0
70
128
71
-80
72
97
73
81
0
VERTEX
8
Sphere02
10
0
20
0
30
0
70
128
71
81
72
97
73
-82
0
VERTEX
8
Sphere02
10
0
20
0
30
0
70
128
71
-81
72
82
73
66
0
VERTEX
8
Sphere02
10
0
20
0
30
0
70
128
71
82
72
98
73
-99
0
VERTEX
8
Sphere02
10
0
20
0
30
0
70
128
71
-82
72
99
73
83
0
VERTEX
8
Sphere02
10
0
20
0
30
0
70
128
71
83
72
99
73
-100
0
VERTEX
8
Sphere02
10
0
20
0
30
0
70
128
71
-83
72
100
73
84
0
VERTEX
8
Sphere02
10
0
20
0
30
0
70
128
71
84
72
100
73
-101
0
VERTEX
8
Sphere02
10
0
20
0
30
0
70
128
71
-84
72
101
73
85
0
VERTEX
8
Sphere02
10
0
20
0
30
0
70
128
71
85
72
101
73
-102
0
VERTEX
8
Sphere02
10
0
20
0
30
0
70
128
71
-85
72
102
73
86
0
VERTEX
8
Sphere02
10
0
20
0
30
0
70
128
71
86
72
102
73
-103
0
VERTEX
8
Sphere02
10
0
20
0
30
0
70
128
71
-86
72
103
73
87
0
VERTEX
8
Sphere02
10
0
20
0
30
0
70
128
71
87
72
103
73
-104
0
VERTEX
8
Sphere02
10
0
20
0
30
0
70
128
71
-87
72
104
73
88
0
VERTEX
8
Sphere02
10
0
20
0
30
0
70
128
71
88
72
104
73
-105
0
VERTEX
8
Sphere02
10
0
20
0
30
0
70
128
71
-88
72
105
73
89
0
VERTEX
8
Sphere02
10
0
20
0
30
0
70
128
71
89
72
105
73
-106
0
VERTEX
8
Sphere02
10
0
20
0
30
0
70
128
71
-89
72
106
73
90
0
VERTEX
8
Sphere02
10
0
20
0
30
0
70
128
71
90
72
106
73
-107
0
VERTEX
8
Sphere02
10
0
20
0
30
0
70
128
71
-90
72
107
73
91
0
VERTEX
8
Sphere02
10
0
20
0
30
0
70
128
71
91
72
107
73
-108
0
VERTEX
8
Sphere02
10
0
20
0
30
0
70
128
71
-91
72
108
73
92
0
VERTEX
8
Sphere02
10
0
20
0
30
0
70
128
71
92
72
108
73
-109
0
VERTEX
8
Sphere02
10
0
20
0
30
0
70
128
71
-92
72
109
73
93
0
VERTEX
8
Sphere02
10
0
20
0
30
0
70
128
71
93
72
109
73
-110
0
VERTEX
8
Sphere02
10
0
20
0
30
0
70
128
71
-93
72
110
73
94
0
VERTEX
8
Sphere02
10
0
20
0
30
0
70
128
71
94
72
110
73
-111
0
VERTEX
8
Sphere02
10
0
20
0
30
0
70
128
71
-94
72
111
73
95
0
VERTEX
8
Sphere02
10
0
20
0
30
0
70
128
71
95
72
111
73
-112
0
VERTEX
8
Sphere02
10
0
20
0
30
0
70
128
71
-95
72
112
73
96
0
VERTEX
8
Sphere02
10
0
20
0
30
0
70
128
71
96
72
112
73
-113
0
VERTEX
8
Sphere02
10
0
20
0
30
0
70
128
71
-96
72
113
73
97
0
VERTEX
8
Sphere02
10
0
20
0
30
0
70
128
71
97
72
113
73
-98
0
VERTEX
8
Sphere02
10
0
20
0
30
0
70
128
71
-97
72
98
73
82
0
VERTEX
8
Sphere02
10
0
20
0
30
0
70
128
71
114
72
99
73
98
0
VERTEX
8
Sphere02
10
0
20
0
30
0
70
128
71
114
72
100
73
99
0
VERTEX
8
Sphere02
10
0
20
0
30
0
70
128
71
114
72
101
73
100
0
VERTEX
8
Sphere02
10
0
20
0
30
0
70
128
71
114
72
102
73
101
0
VERTEX
8
Sphere02
10
0
20
0
30
0
70
128
71
114
72
103
73
102
0
VERTEX
8
Sphere02
10
0
20
0
30
0
70
128
71
114
72
104
73
103
0
VERTEX
8
Sphere02
10
0
20
0
30
0
70
128
71
114
72
105
73
104
0
VERTEX
8
Sphere02
10
0
20
0
30
0
70
128
71
114
72
106
73
105
0
VERTEX
8
Sphere02
10
0
20
0
30
0
70
128
71
114
72
107
73
106
0
VERTEX
8
Sphere02
10
0
20
0
30
0
70
128
71
114
72
108
73
107
0
VERTEX
8
Sphere02
10
0
20
0
30
0
70
128
71
114
72
109
73
108
0
VERTEX
8
Sphere02
10
0
20
0
30
0
70
128
71
114
72
110
73
109
0
VERTEX
8
Sphere02
10
0
20
0
30
0
70
128
71
114
72
111
73
110
0
VERTEX
8
Sphere02
10
0
20
0
30
0
70
128
71
114
72
112
73
111
0
VERTEX
8
Sphere02
10
0
20
0
30
0
70
128
71
114
72
113
73
112
0
VERTEX
8
Sphere02
10
0
20
0
30
0
70
128
71
114
72
98
73
113
0
SEQEND
8
Sphere02
0
POLYLINE
8
Sphere03
66
1
70
64
71
114
72
224
62
192
0
VERTEX
8
Sphere03
10
-0.000080
20
-0.000041
30
39.792015
70
192
0
VERTEX
8
Sphere03
10
-0.000081
20
4.885317
30
38.820259
70
192
0
VERTEX
8
Sphere03
10
-1.869626
20
4.513441
30
38.820259
70
192
0
VERTEX
8
Sphere03
10
-3.454550
20
3.454428
30
38.820259
70
192
0
VERTEX
8
Sphere03
10
-4.513563
20
1.869504
30
38.820259
70
192
0
VERTEX
8
Sphere03
10
-4.885438
20
-0.000042
30
38.820259
70
192
0
VERTEX
8
Sphere03
10
-4.513562
20
-1.869587
30
38.820259
70
192
0
VERTEX
8
Sphere03
10
-3.454550
20
-3.454511
30
38.820259
70
192
0
VERTEX
8
Sphere03
10
-1.869625
20
-4.513524
30
38.820259
70
192
0
VERTEX
8
Sphere03
10
-0.000080
20
-4.885399
30
38.820259
70
192
0
VERTEX
8
Sphere03
10
1.869466
20
-4.513523
30
38.820259
70
192
0
VERTEX
8
Sphere03
10
3.454390
20
-3.454510
30
38.820259
70
192
0
VERTEX
8
Sphere03
10
4.513402
20
-1.869586
30
38.820259
70
192
0
VERTEX
8
Sphere03
10
4.885277
20
-0.000040
30
38.820259
70
192
0
VERTEX
8
Sphere03
10
4.513402
20
1.869505
30
38.820259
70
192
0
VERTEX
8
Sphere03
10
3.454389
20
3.454429
30
38.820259
70
192
0
VERTEX
8
Sphere03
10
1.869464
20
4.513442
30
38.820259
70
192
0
VERTEX
8
Sphere03
10
-0.000081
20
9.026923
30
36.052925
70
192
0
VERTEX
8
Sphere03
10
-3.454550
20
8.339786
30
36.052925
70
192
0
VERTEX
8
Sphere03
10
-6.383109
20
6.382986
30
36.052925
70
192
0
VERTEX
8
Sphere03
10
-8.339908
20
3.454428
30
36.052925
70
192
0
VERTEX
8
Sphere03
10
-9.027044
20
-0.000042
30
36.052925
70
192
0
VERTEX
8
Sphere03
10
-8.339908
20
-3.454512
30
36.052925
70
192
0
VERTEX
8
Sphere03
10
-6.383107
20
-6.383069
30
36.052925
70
192
0
VERTEX
8
Sphere03
10
-3.454549
20
-8.339869
30
36.052925
70
192
0
VERTEX
8
Sphere03
10
-0.000079
20
-9.027005
30
36.052925
70
192
0
VERTEX
8
Sphere03
10
3.454391
20
-8.339868
30
36.052925
70
192
0
VERTEX
8
Sphere03
10
6.382948
20
-6.383068
30
36.052925
70
192
0
VERTEX
8
Sphere03
10
8.339747
20
-3.454509
30
36.052925
70
192
0
VERTEX
8
Sphere03
10
9.026884
20
-0.000040
30
36.052925
70
192
0
VERTEX
8
Sphere03
10
8.339746
20
3.454430
30
36.052925
70
192
0
VERTEX
8
Sphere03
10
6.382946
20
6.382987
30
36.052925
70
192
0
VERTEX
8
Sphere03
10
3.454387
20
8.339787
30
36.052925
70
192
0
VERTEX
8
Sphere03
10
-0.000081
20
11.794255
30
31.911318
70
192
0
VERTEX
8
Sphere03
10
-4.513563
20
10.896468
30
31.911318
70
192
0
VERTEX
8
Sphere03
10
-8.339909
20
8.339786
30
31.911318
70
192
0
VERTEX
8
Sphere03
10
-10.896590
20
4.513440
30
31.911318
70
192
0
VERTEX
8
Sphere03
10
-11.794377
20
-0.000042
30
31.911318
70
192
0
VERTEX
8
Sphere03
10
-10.896590
20
-4.513524
30
31.911318
70
192
0
VERTEX
8
Sphere03
10
-8.339907
20
-8.339869
30
31.911318
70
192
0
VERTEX
8
Sphere03
10
-4.513561
20
-10.896550
30
31.911318
70
192
0
VERTEX
8
Sphere03
10
-0.000079
20
-11.794338
30
31.911318
70
192
0
VERTEX
8
Sphere03
10
4.513403
20
-10.896549
30
31.911318
70
192
0
VERTEX
8
Sphere03
10
8.339748
20
-8.339868
30
31.911318
70
192
0
VERTEX
8
Sphere03
10
10.896430
20
-4.513521
30
31.911318
70
192
0
VERTEX
8
Sphere03
10
11.794216
20
-0.000039
30
31.911318
70
192
0
VERTEX
8
Sphere03
10
10.896428
20
4.513443
30
31.911318
70
192
0
VERTEX
8
Sphere03
10
8.339746
20
8.339787
30
31.911318
70
192
0
VERTEX
8
Sphere03
10
4.513399
20
10.896469
30
31.911318
70
192
0
VERTEX
8
Sphere03
10
-0.000081
20
12.766014
30
27.025961
70
192
0
VERTEX
8
Sphere03
10
-4.885439
20
11.794255
30
27.025961
70
192
0
VERTEX
8
Sphere03
10
-9.027045
20
9.026922
30
27.025961
70
192
0
VERTEX
8
Sphere03
10
-11.794377
20
4.885316
30
27.025961
70
192
0
VERTEX
8
Sphere03
10
-12.766135
20
-0.000042
30
27.025961
70
192
0
VERTEX
8
Sphere03
10
-11.794377
20
-4.885400
30
27.025961
70
192
0
VERTEX
8
Sphere03
10
-9.027043
20
-9.027006
30
27.025961
70
192
0
VERTEX
8
Sphere03
10
-4.885437
20
-11.794339
30
27.025961
70
192
0
VERTEX
8
Sphere03
10
-0.000079
20
-12.766096
30
27.025961
70
192
0
VERTEX
8
Sphere03
10
4.885279
20
-11.794336
30
27.025961
70
192
0
VERTEX
8
Sphere03
10
9.026885
20
-9.027004
30
27.025961
70
192
0
VERTEX
8
Sphere03
10
11.794218
20
-4.885397
30
27.025961
70
192
0
VERTEX
8
Sphere03
10
12.765974
20
-0.000039
30
27.025961
70
192
0
VERTEX
8
Sphere03
10
11.794215
20
4.885319
30
27.025961
70
192
0
VERTEX
8
Sphere03
10
9.026882
20
9.026924
30
27.025961
70
192
0
VERTEX
8
Sphere03
10
4.885275
20
11.794257
30
27.025961
70
192
0
VERTEX
8
Sphere03
10
-0.000081
20
11.794255
30
22.140602
70
192
0
VERTEX
8
Sphere03
10
-4.513563
20
10.896468
30
22.140602
70
192
0
VERTEX
8
Sphere03
10
-8.339909
20
8.339786
30
22.140602
70
192
0
VERTEX
8
Sphere03
10
-10.896590
20
4.513440
30
22.140602
70
192
0
VERTEX
8
Sphere03
10
-11.794377
20
-0.000042
30
22.140602
70
192
0
VERTEX
8
Sphere03
10
-10.896590
20
-4.513524
30
22.140602
70
192
0
VERTEX
8
Sphere03
10
-8.339907
20
-8.339869
30
22.140602
70
192
0
VERTEX
8
Sphere03
10
-4.513561
20
-10.896550
30
22.140602
70
192
0
VERTEX
8
Sphere03
10
-0.000079
20
-11.794338
30
22.140602
70
192
0
VERTEX
8
Sphere03
10
4.513403
20
-10.896549
30
22.140602
70
192
0
VERTEX
8
Sphere03
10
8.339748
20
-8.339868
30
22.140602
70
192
0
VERTEX
8
Sphere03
10
10.896430
20
-4.513521
30
22.140602
70
192
0
VERTEX
8
Sphere03
10
11.794216
20
-0.000039
30
22.140602
70
192
0
VERTEX
8
Sphere03
10
10.896428
20
4.513443
30
22.140602
70
192
0
VERTEX
8
Sphere03
10
8.339746
20
8.339787
30
22.140602
70
192
0
VERTEX
8
Sphere03
10
4.513399
20
10.896469
30
22.140602
70
192
0
VERTEX
8
Sphere03
10
-0.000081
20
9.026922
30
17.998997
70
192
0
VERTEX
8
Sphere03
10
-3.454550
20
8.339785
30
17.998997
70
192
0
VERTEX
8
Sphere03
10
-6.383108
20
6.382986
30
17.998997
70
192
0
VERTEX
8
Sphere03
10
-8.339908
20
3.454427
30
17.998997
70
192
0
VERTEX
8
Sphere03
10
-9.027043
20
-0.000042
30
17.998997
70
192
0
VERTEX
8
Sphere03
10
-8.339907
20
-3.454511
30
17.998997
70
192
0
VERTEX
8
Sphere03
10
-6.383107
20
-6.383069
30
17.998997
70
192
0
VERTEX
8
Sphere03
10
-3.454549
20
-8.339868
30
17.998997
70
192
0
VERTEX
8
Sphere03
10
-0.000079
20
-9.027004
30
17.998997
70
192
0
VERTEX
8
Sphere03
10
3.454390
20
-8.339868
30
17.998997
70
192
0
VERTEX
8
Sphere03
10
6.382948
20
-6.383068
30
17.998997
70
192
0
VERTEX
8
Sphere03
10
8.339747
20
-3.454509
30
17.998997
70
192
0
VERTEX
8
Sphere03
10
9.026883
20
-0.000040
30
17.998997
70
192
0
VERTEX
8
Sphere03
10
8.339746
20
3.454430
30
17.998997
70
192
0
VERTEX
8
Sphere03
10
6.382945
20
6.382987
30
17.998997
70
192
0
VERTEX
8
Sphere03
10
3.454387
20
8.339787
30
17.998997
70
192
0
VERTEX
8
Sphere03
10
-0.000081
20
4.885316
30
15.231664
70
192
0
VERTEX
8
Sphere03
10
-1.869626
20
4.513440
30
15.231664
70
192
0
VERTEX
8
Sphere03
10
-3.454550
20
3.454427
30
15.231664
70
192
0
VERTEX
8
Sphere03
10
-4.513562
20
1.869504
30
15.231664
70
192
0
VERTEX
8
Sphere03
10
-4.885437
20
-0.000042
30
15.231664
70
192
0
VERTEX
8
Sphere03
10
-4.513561
20
-1.869587
30
15.231664
70
192
0
VERTEX
8
Sphere03
10
-3.454549
20
-3.454510
30
15.231664
70
192
0
VERTEX
8
Sphere03
10
-1.869625
20
-4.513523
30
15.231664
70
192
0
VERTEX
8
Sphere03
10
-0.000080
20
-4.885398
30
15.231664
70
192
0
VERTEX
8
Sphere03
10
1.869465
20
-4.513522
30
15.231664
70
192
0
VERTEX
8
Sphere03
10
3.454389
20
-3.454509
30
15.231664
70
192
0
VERTEX
8
Sphere03
10
4.513402
20
-1.869586
30
15.231664
70
192
0
VERTEX
8
Sphere03
10
4.885277
20
-0.000040
30
15.231664
70
192
0
VERTEX
8
Sphere03
10
4.513401
20
1.869505
30
15.231664
70
192
0
VERTEX
8
Sphere03
10
3.454388
20
3.454428
30
15.231664
70
192
0
VERTEX
8
Sphere03
10
1.869464
20
4.513441
30
15.231664
70
192
0
VERTEX
8
Sphere03
10
-0.000080
20
-0.000041
30
14.259906
70
192
0
VERTEX
8
Sphere03
10
0
20
0
30
0
70
128
71
1
72
2
73
3
0
VERTEX
8
Sphere03
10
0
20
0
30
0
70
128
71
1
72
3
73
4
0
VERTEX
8
Sphere03
10
0
20
0
30
0
70
128
71
1
72
4
73
5
0
VERTEX
8
Sphere03
10
0
20
0
30
0
70
128
71
1
72
5
73
6
0
VERTEX
8
Sphere03
10
0
20
0
30
0
70
128
71
1
72
6
73
7
0
VERTEX
8
Sphere03
10
0
20
0
30
0
70
128
71
1
72
7
73
8
0
VERTEX
8
Sphere03
10
0
20
0
30
0
70
128
71
1
72
8
73
9
0
VERTEX
8
Sphere03
10
0
20
0
30
0
70
128
71
1
72
9
73
10
0
VERTEX
8
Sphere03
10
0
20
0
30
0
70
128
71
1
72
10
73
11
0
VERTEX
8
Sphere03
10
0
20
0
30
0
70
128
71
1
72
11
73
12
0
VERTEX
8
Sphere03
10
0
20
0
30
0
70
128
71
1
72
12
73
13
0
VERTEX
8
Sphere03
10
0
20
0
30
0
70
128
71
1
72
13
73
14
0
VERTEX
8
Sphere03
10
0
20
0
30
0
70
128
71
1
72
14
73
15
0
VERTEX
8
Sphere03
10
0
20
0
30
0
70
128
71
1
72
15
73
16
0
VERTEX
8
Sphere03
10
0
20
0
30
0
70
128
71
1
72
16
73
17
0
VERTEX
8
Sphere03
10
0
20
0
30
0
70
128
71
1
72
17
73
2
0
VERTEX
8
Sphere03
10
0
20
0
30
0
70
128
71
2
72
18
73
-19
0
VERTEX
8
Sphere03
10
0
20
0
30
0
70
128
71
-2
72
19
73
3
0
VERTEX
8
Sphere03
10
0
20
0
30
0
70
128
71
3
72
19
73
-20
0
VERTEX
8
Sphere03
10
0
20
0
30
0
70
128
71
-3
72
20
73
4
0
VERTEX
8
Sphere03
10
0
20
0
30
0
70
128
71
4
72
20
73
-21
0
VERTEX
8
Sphere03
10
0
20
0
30
0
70
128
71
-4
72
21
73
5
0
VERTEX
8
Sphere03
10
0
20
0
30
0
70
128
71
5
72
21
73
-22
0
VERTEX
8
Sphere03
10
0
20
0
30
0
70
128
71
-5
72
22
73
6
0
VERTEX
8
Sphere03
10
0
20
0
30
0
70
128
71
6
72
22
73
-23
0
VERTEX
8
Sphere03
10
0
20
0
30
0
70
128
71
-6
72
23
73
7
0
VERTEX
8
Sphere03
10
0
20
0
30
0
70
128
71
7
72
23
73
-24
0
VERTEX
8
Sphere03
10
0
20
0
30
0
70
128
71
-7
72
24
73
8
0
VERTEX
8
Sphere03
10
0
20
0
30
0
70
128
71
8
72
24
73
-25
0
VERTEX
8
Sphere03
10
0
20
0
30
0
70
128
71
-8
72
25
73
9
0
VERTEX
8
Sphere03
10
0
20
0
30
0
70
128
71
9
72
25
73
-26
0
VERTEX
8
Sphere03
10
0
20
0
30
0
70
128
71
-9
72
26
73
10
0
VERTEX
8
Sphere03
10
0
20
0
30
0
70
128
71
10
72
26
73
-27
0
VERTEX
8
Sphere03
10
0
20
0
30
0
70
128
71
-10
72
27
73
11
0
VERTEX
8
Sphere03
10
0
20
0
30
0
70
128
71
11
72
27
73
-28
0
VERTEX
8
Sphere03
10
0
20
0
30
0
70
128
71
-11
72
28
73
12
0
VERTEX
8
Sphere03
10
0
20
0
30
0
70
128
71
12
72
28
73
-29
0
VERTEX
8
Sphere03
10
0
20
0
30
0
70
128
71
-12
72
29
73
13
0
VERTEX
8
Sphere03
10
0
20
0
30
0
70
128
71
13
72
29
73
-30
0
VERTEX
8
Sphere03
10
0
20
0
30
0
70
128
71
-13
72
30
73
14
0
VERTEX
8
Sphere03
10
0
20
0
30
0
70
128
71
14
72
30
73
-31
0
VERTEX
8
Sphere03
10
0
20
0
30
0
70
128
71
-14
72
31
73
15
0
VERTEX
8
Sphere03
10
0
20
0
30
0
70
128
71
15
72
31
73
-32
0
VERTEX
8
Sphere03
10
0
20
0
30
0
70
128
71
-15
72
32
73
16
0
VERTEX
8
Sphere03
10
0
20
0
30
0
70
128
71
16
72
32
73
-33
0
VERTEX
8
Sphere03
10
0
20
0
30
0
70
128
71
-16
72
33
73
17
0
VERTEX
8
Sphere03
10
0
20
0
30
0
70
128
71
17
72
33
73
-18
0
VERTEX
8
Sphere03
10
0
20
0
30
0
70
128
71
-17
72
18
73
2
0
VERTEX
8
Sphere03
10
0
20
0
30
0
70
128
71
18
72
34
73
-35
0
VERTEX
8
Sphere03
10
0
20
0
30
0
70
128
71
-18
72
35
73
19
0
VERTEX
8
Sphere03
10
0
20
0
30
0
70
128
71
19
72
35
73
-36
0
VERTEX
8
Sphere03
10
0
20
0
30
0
70
128
71
-19
72
36
73
20
0
VERTEX
8
Sphere03
10
0
20
0
30
0
70
128
71
20
72
36
73
-37
0
VERTEX
8
Sphere03
10
0
20
0
30
0
70
128
71
-20
72
37
73
21
0
VERTEX
8
Sphere03
10
0
20
0
30
0
70
128
71
21
72
37
73
-38
0
VERTEX
8
Sphere03
10
0
20
0
30
0
70
128
71
-21
72
38
73
22
0
VERTEX
8
Sphere03
10
0
20
0
30
0
70
128
71
22
72
38
73
-39
0
VERTEX
8
Sphere03
10
0
20
0
30
0
70
128
71
-22
72
39
73
23
0
VERTEX
8
Sphere03
10
0
20
0
30
0
70
128
71
23
72
39
73
-40
0
VERTEX
8
Sphere03
10
0
20
0
30
0
70
128
71
-23
72
40
73
24
0
VERTEX
8
Sphere03
10
0
20
0
30
0
70
128
71
24
72
40
73
-41
0
VERTEX
8
Sphere03
10
0
20
0
30
0
70
128
71
-24
72
41
73
25
0
VERTEX
8
Sphere03
10
0
20
0
30
0
70
128
71
25
72
41
73
-42
0
VERTEX
8
Sphere03
10
0
20
0
30
0
70
128
71
-25
72
42
73
26
0
VERTEX
8
Sphere03
10
0
20
0
30
0
70
128
71
26
72
42
73
-43
0
VERTEX
8
Sphere03
10
0
20
0
30
0
70
128
71
-26
72
43
73
27
0
VERTEX
8
Sphere03
10
0
20
0
30
0
70
128
71
27
72
43
73
-44
0
VERTEX
8
Sphere03
10
0
20
0
30
0
70
128
71
-27
72
44
73
28
0
VERTEX
8
Sphere03
10
0
20
0
30
0
70
128
71
28
72
44
73
-45
0
VERTEX
8
Sphere03
10
0
20
0
30
0
70
128
71
-28
72
45
73
29
0
VERTEX
8
Sphere03
10
0
20
0
30
0
70
128
71
29
72
45
73
-46
0
VERTEX
8
Sphere03
10
0
20
0
30
0
70
128
71
-29
72
46
73
30
0
VERTEX
8
Sphere03
10
0
20
0
30
0
70
128
71
30
72
46
73
-47
0
VERTEX
8
Sphere03
10
0
20
0
30
0
70
128
71
-30
72
47
73
31
0
VERTEX
8
Sphere03
10
0
20
0
30
0
70
128
71
31
72
47
73
-48
0
VERTEX
8
Sphere03
10
0
20
0
30
0
70
128
71
-31
72
48
73
32
0
VERTEX
8
Sphere03
10
0
20
0
30
0
70
128
71
32
72
48
73
-49
0
VERTEX
8
Sphere03
10
0
20
0
30
0
70
128
71
-32
72
49
73
33
0
VERTEX
8
Sphere03
10
0
20
0
30
0
70
128
71
33
72
49
73
-34
0
VERTEX
8
Sphere03
10
0
20
0
30
0
70
128
71
-33
72
34
73
18
0
VERTEX
8
Sphere03
10
0
20
0
30
0
70
128
71
34
72
50
73
-51
0
VERTEX
8
Sphere03
10
0
20
0
30
0
70
128
71
-34
72
51
73
35
0
VERTEX
8
Sphere03
10
0
20
0
30
0
70
128
71
35
72
51
73
-52
0
VERTEX
8
Sphere03
10
0
20
0
30
0
70
128
71
-35
72
52
73
36
0
VERTEX
8
Sphere03
10
0
20
0
30
0
70
128
71
36
72
52
73
-53
0
VERTEX
8
Sphere03
10
0
20
0
30
0
70
128
71
-36
72
53
73
37
0
VERTEX
8
Sphere03
10
0
20
0
30
0
70
128
71
37
72
53
73
-54
0
VERTEX
8
Sphere03
10
0
20
0
30
0
70
128
71
-37
72
54
73
38
0
VERTEX
8
Sphere03
10
0
20
0
30
0
70
128
71
38
72
54
73
-55
0
VERTEX
8
Sphere03
10
0
20
0
30
0
70
128
71
-38
72
55
73
39
0
VERTEX
8
Sphere03
10
0
20
0
30
0
70
128
71
39
72
55
73
-56
0
VERTEX
8
Sphere03
10
0
20
0
30
0
70
128
71
-39
72
56
73
40
0
VERTEX
8
Sphere03
10
0
20
0
30
0
70
128
71
40
72
56
73
-57
0
VERTEX
8
Sphere03
10
0
20
0
30
0
70
128
71
-40
72
57
73
41
0
VERTEX
8
Sphere03
10
0
20
0
30
0
70
128
71
41
72
57
73
-58
0
VERTEX
8
Sphere03
10
0
20
0
30
0
70
128
71
-41
72
58
73
42
0
VERTEX
8
Sphere03
10
0
20
0
30
0
70
128
71
42
72
58
73
-59
0
VERTEX
8
Sphere03
10
0
20
0
30
0
70
128
71
-42
72
59
73
43
0
VERTEX
8
Sphere03
10
0
20
0
30
0
70
128
71
43
72
59
73
-60
0
VERTEX
8
Sphere03
10
0
20
0
30
0
70
128
71
-43
72
60
73
44
0
VERTEX
8
Sphere03
10
0
20
0
30
0
70
128
71
44
72
60
73
-61
0
VERTEX
8
Sphere03
10
0
20
0
30
0
70
128
71
-44
72
61
73
45
0
VERTEX
8
Sphere03
10
0
20
0
30
0
70
128
71
45
72
61
73
-62
0
VERTEX
8
Sphere03
10
0
20
0
30
0
70
128
71
-45
72
62
73
46
0
VERTEX
8
Sphere03
10
0
20
0
30
0
70
128
71
46
72
62
73
-63
0
VERTEX
8
Sphere03
10
0
20
0
30
0
70
128
71
-46
72
63
73
47
0
VERTEX
8
Sphere03
10
0
20
0
30
0
70
128
71
47
72
63
73
-64
0
VERTEX
8
Sphere03
10
0
20
0
30
0
70
128
71
-47
72
64
73
48
0
VERTEX
8
Sphere03
10
0
20
0
30
0
70
128
71
48
72
64
73
-65
0
VERTEX
8
Sphere03
10
0
20
0
30
0
70
128
71
-48
72
65
73
49
0
VERTEX
8
Sphere03
10
0
20
0
30
0
70
128
71
49
72
65
73
-50
0
VERTEX
8
Sphere03
10
0
20
0
30
0
70
128
71
-49
72
50
73
34
0
VERTEX
8
Sphere03
10
0
20
0
30
0
70
128
71
50
72
66
73
-67
0
VERTEX
8
Sphere03
10
0
20
0
30
0
70
128
71
-50
72
67
73
51
0
VERTEX
8
Sphere03
10
0
20
0
30
0
70
128
71
51
72
67
73
-68
0
VERTEX
8
Sphere03
10
0
20
0
30
0
70
128
71
-51
72
68
73
52
0
VERTEX
8
Sphere03
10
0
20
0
30
0
70
128
71
52
72
68
73
-69
0
VERTEX
8
Sphere03
10
0
20
0
30
0
70
128
71
-52
72
69
73
53
0
VERTEX
8
Sphere03
10
0
20
0
30
0
70
128
71
53
72
69
73
-70
0
VERTEX
8
Sphere03
10
0
20
0
30
0
70
128
71
-53
72
70
73
54
0
VERTEX
8
Sphere03
10
0
20
0
30
0
70
128
71
54
72
70
73
-71
0
VERTEX
8
Sphere03
10
0
20
0
30
0
70
128
71
-54
72
71
73
55
0
VERTEX
8
Sphere03
10
0
20
0
30
0
70
128
71
55
72
71
73
-72
0
VERTEX
8
Sphere03
10
0
20
0
30
0
70
128
71
-55
72
72
73
56
0
VERTEX
8
Sphere03
10
0
20
0
30
0
70
128
71
56
72
72
73
-73
0
VERTEX
8
Sphere03
10
0
20
0
30
0
70
128
71
-56
72
73
73
57
0
VERTEX
8
Sphere03
10
0
20
0
30
0
70
128
71
57
72
73
73
-74
0
VERTEX
8
Sphere03
10
0
20
0
30
0
70
128
71
-57
72
74
73
58
0
VERTEX
8
Sphere03
10
0
20
0
30
0
70
128
71
58
72
74
73
-75
0
VERTEX
8
Sphere03
10
0
20
0
30
0
70
128
71
-58
72
75
73
59
0
VERTEX
8
Sphere03
10
0
20
0
30
0
70
128
71
59
72
75
73
-76
0
VERTEX
8
Sphere03
10
0
20
0
30
0
70
128
71
-59
72
76
73
60
0
VERTEX
8
Sphere03
10
0
20
0
30
0
70
128
71
60
72
76
73
-77
0
VERTEX
8
Sphere03
10
0
20
0
30
0
70
128
71
-60
72
77
73
61
0
VERTEX
8
Sphere03
10
0
20
0
30
0
70
128
71
61
72
77
73
-78
0
VERTEX
8
Sphere03
10
0
20
0
30
0
70
128
71
-61
72
78
73
62
0
VERTEX
8
Sphere03
10
0
20
0
30
0
70
128
71
62
72
78
73
-79
0
VERTEX
8
Sphere03
10
0
20
0
30
0
70
128
71
-62
72
79
73
63
0
VERTEX
8
Sphere03
10
0
20
0
30
0
70
128
71
63
72
79
73
-80
0
VERTEX
8
Sphere03
10
0
20
0
30
0
70
128
71
-63
72
80
73
64
0
VERTEX
8
Sphere03
10
0
20
0
30
0
70
128
71
64
72
80
73
-81
0
VERTEX
8
Sphere03
10
0
20
0
30
0
70
128
71
-64
72
81
73
65
0
VERTEX
8
Sphere03
10
0
20
0
30
0
70
128
71
65
72
81
73
-66
0
VERTEX
8
Sphere03
10
0
20
0
30
0
70
128
71
-65
72
66
73
50
0
VERTEX
8
Sphere03
10
0
20
0
30
0
70
128
71
66
72
82
73
-83
0
VERTEX
8
Sphere03
10
0
20
0
30
0
70
128
71
-66
72
83
73
67
0
VERTEX
8
Sphere03
10
0
20
0
30
0
70
128
71
67
72
83
73
-84
0
VERTEX
8
Sphere03
10
0
20
0
30
0
70
128
71
-67
72
84
73
68
0
VERTEX
8
Sphere03
10
0
20
0
30
0
70
128
71
68
72
84
73
-85
0
VERTEX
8
Sphere03
10
0
20
0
30
0
70
128
71
-68
72
85
73
69
0
VERTEX
8
Sphere03
10
0
20
0
30
0
70
128
71
69
72
85
73
-86
0
VERTEX
8
Sphere03
10
0
20
0
30
0
70
128
71
-69
72
86
73
70
0
VERTEX
8
Sphere03
10
0
20
0
30
0
70
128
71
70
72
86
73
-87
0
VERTEX
8
Sphere03
10
0
20
0
30
0
70
128
71
-70
72
87
73
71
0
VERTEX
8
Sphere03
10
0
20
0
30
0
70
128
71
71
72
87
73
-88
0
VERTEX
8
Sphere03
10
0
20
0
30
0
70
128
71
-71
72
88
73
72
0
VERTEX
8
Sphere03
10
0
20
0
30
0
70
128
71
72
72
88
73
-89
0
VERTEX
8
Sphere03
10
0
20
0
30
0
70
128
71
-72
72
89
73
73
0
VERTEX
8
Sphere03
10
0
20
0
30
0
70
128
71
73
72
89
73
-90
0
VERTEX
8
Sphere03
10
0
20
0
30
0
70
128
71
-73
72
90
73
74
0
VERTEX
8
Sphere03
10
0
20
0
30
0
70
128
71
74
72
90
73
-91
0
VERTEX
8
Sphere03
10
0
20
0
30
0
70
128
71
-74
72
91
73
75
0
VERTEX
8
Sphere03
10
0
20
0
30
0
70
128
71
75
72
91
73
-92
0
VERTEX
8
Sphere03
10
0
20
0
30
0
70
128
71
-75
72
92
73
76
0
VERTEX
8
Sphere03
10
0
20
0
30
0
70
128
71
76
72
92
73
-93
0
VERTEX
8
Sphere03
10
0
20
0
30
0
70
128
71
-76
72
93
73
77
0
VERTEX
8
Sphere03
10
0
20
0
30
0
70
128
71
77
72
93
73
-94
0
VERTEX
8
Sphere03
10
0
20
0
30
0
70
128
71
-77
72
94
73
78
0
VERTEX
8
Sphere03
10
0
20
0
30
0
70
128
71
78
72
94
73
-95
0
VERTEX
8
Sphere03
10
0
20
0
30
0
70
128
71
-78
72
95
73
79
0
VERTEX
8
Sphere03
10
0
20
0
30
0
70
128
71
79
72
95
73
-96
0
VERTEX
8
Sphere03
10
0
20
0
30
0
70
128
71
-79
72
96
73
80
0
VERTEX
8
Sphere03
10
0
20
0
30
0
70
128
71
80
72
96
73
-97
0
VERTEX
8
Sphere03
10
0
20
0
30
0
70
128
71
-80
72
97
73
81
0
VERTEX
8
Sphere03
10
0
20
0
30
0
70
128
71
81
72
97
73
-82
0
VERTEX
8
Sphere03
10
0
20
0
30
0
70
128
71
-81
72
82
73
66
0
VERTEX
8
Sphere03
10
0
20
0
30
0
70
128
71
82
72
98
73
-99
0
VERTEX
8
Sphere03
10
0
20
0
30
0
70
128
71
-82
72
99
73
83
0
VERTEX
8
Sphere03
10
0
20
0
30
0
70
128
71
83
72
99
73
-100
0
VERTEX
8
Sphere03
10
0
20
0
30
0
70
128
71
-83
72
100
73
84
0
VERTEX
8
Sphere03
10
0
20
0
30
0
70
128
71
84
72
100
73
-101
0
VERTEX
8
Sphere03
10
0
20
0
30
0
70
128
71
-84
72
101
73
85
0
VERTEX
8
Sphere03
10
0
20
0
30
0
70
128
71
85
72
101
73
-102
0
VERTEX
8
Sphere03
10
0
20
0
30
0
70
128
71
-85
72
102
73
86
0
VERTEX
8
Sphere03
10
0
20
0
30
0
70
128
71
86
72
102
73
-103
0
VERTEX
8
Sphere03
10
0
20
0
30
0
70
128
71
-86
72
103
73
87
0
VERTEX
8
Sphere03
10
0
20
0
30
0
70
128
71
87
72
103
73
-104
0
VERTEX
8
Sphere03
10
0
20
0
30
0
70
128
71
-87
72
104
73
88
0
VERTEX
8
Sphere03
10
0
20
0
30
0
70
128
71
88
72
104
73
-105
0
VERTEX
8
Sphere03
10
0
20
0
30
0
70
128
71
-88
72
105
73
89
0
VERTEX
8
Sphere03
10
0
20
0
30
0
70
128
71
89
72
105
73
-106
0
VERTEX
8
Sphere03
10
0
20
0
30
0
70
128
71
-89
72
106
73
90
0
VERTEX
8
Sphere03
10
0
20
0
30
0
70
128
71
90
72
106
73
-107
0
VERTEX
8
Sphere03
10
0
20
0
30
0
70
128
71
-90
72
107
73
91
0
VERTEX
8
Sphere03
10
0
20
0
30
0
70
128
71
91
72
107
73
-108
0
VERTEX
8
Sphere03
10
0
20
0
30
0
70
128
71
-91
72
108
73
92
0
VERTEX
8
Sphere03
10
0
20
0
30
0
70
128
71
92
72
108
73
-109
0
VERTEX
8
Sphere03
10
0
20
0
30
0
70
128
71
-92
72
109
73
93
0
VERTEX
8
Sphere03
10
0
20
0
30
0
70
128
71
93
72
109
73
-110
0
VERTEX
8
Sphere03
10
0
20
0
30
0
70
128
71
-93
72
110
73
94
0
VERTEX
8
Sphere03
10
0
20
0
30
0
70
128
71
94
72
110
73
-111
0
VERTEX
8
Sphere03
10
0
20
0
30
0
70
128
71
-94
72
111
73
95
0
VERTEX
8
Sphere03
10
0
20
0
30
0
70
128
71
95
72
111
73
-112
0
VERTEX
8
Sphere03
10
0
20
0
30
0
70
128
71
-95
72
112
73
96
0
VERTEX
8
Sphere03
10
0
20
0
30
0
70
128
71
96
72
112
73
-113
0
VERTEX
8
Sphere03
10
0
20
0
30
0
70
128
71
-96
72
113
73
97
0
VERTEX
8
Sphere03
10
0
20
0
30
0
70
128
71
97
72
113
73
-98
0
VERTEX
8
Sphere03
10
0
20
0
30
0
70
128
71
-97
72
98
73
82
0
VERTEX
8
Sphere03
10
0
20
0
30
0
70
128
71
114
72
99
73
98
0
VERTEX
8
Sphere03
10
0
20
0
30
0
70
128
71
114
72
100
73
99
0
VERTEX
8
Sphere03
10
0
20
0
30
0
70
128
71
114
72
101
73
100
0
VERTEX
8
Sphere03
10
0
20
0
30
0
70
128
71
114
72
102
73
101
0
VERTEX
8
Sphere03
10
0
20
0
30
0
70
128
71
114
72
103
73
102
0
VERTEX
8
Sphere03
10
0
20
0
30
0
70
128
71
114
72
104
73
103
0
VERTEX
8
Sphere03
10
0
20
0
30
0
70
128
71
114
72
105
73
104
0
VERTEX
8
Sphere03
10
0
20
0
30
0
70
128
71
114
72
106
73
105
0
VERTEX
8
Sphere03
10
0
20
0
30
0
70
128
71
114
72
107
73
106
0
VERTEX
8
Sphere03
10
0
20
0
30
0
70
128
71
114
72
108
73
107
0
VERTEX
8
Sphere03
10
0
20
0
30
0
70
128
71
114
72
109
73
108
0
VERTEX
8
Sphere03
10
0
20
0
30
0
70
128
71
114
72
110
73
109
0
VERTEX
8
Sphere03
10
0
20
0
30
0
70
128
71
114
72
111
73
110
0
VERTEX
8
Sphere03
10
0
20
0
30
0
70
128
71
114
72
112
73
111
0
VERTEX
8
Sphere03
10
0
20
0
30
0
70
128
71
114
72
113
73
112
0
VERTEX
8
Sphere03
10
0
20
0
30
0
70
128
71
114
72
98
73
113
0
SEQEND
8
Sphere03
0
ENDSEC
0
EOF
